<?xml version="1.0" encoding="utf-8"?>
<!-- Generator: Adobe Illustrator 22.0.0, SVG Export Plug-In . SVG Version: 6.00 Build 0)  -->
<svg version="1.1" id="图层_1" xmlns="http://www.w3.org/2000/svg" xmlns:xlink="http://www.w3.org/1999/xlink" x="0px" y="0px"
	 viewBox="0 0 300 300" style="enable-background:new 0 0 300 300;" xml:space="preserve">
<style type="text/css">
	.st0{fill:#CECECE;}
	.st1{fill:#FFCC00;}
	.st2{fill:#F22547;}
	.st3{fill:#CEA600;}
	.st4{fill:#FFFFFF;}
	.st5{fill:#FFFFFF;stroke:#000000;stroke-width:2;stroke-miterlimit:10;}
</style>
<path class="st0" d="M33.4,200.3c0,0,118.7-36.1,227,31.6C260.4,231.9,166.4,181.3,33.4,200.3z"/>
<circle class="st1" cx="146.9" cy="111.6" r="67.8"/>
<g>
	<path d="M156,54c34.6,0,62.7,28.1,62.7,62.7c0,34.6-28.1,62.7-62.7,62.7c-34.6,0-62.7-28.1-62.7-62.7C93.3,82.1,121.4,54,156,54
		 M156,51c-36.3,0-65.7,29.4-65.7,65.7c0,36.3,29.4,65.7,65.7,65.7s65.7-29.4,65.7-65.7C221.7,80.4,192.3,51,156,51L156,51z"/>
</g>
<g>
	<path d="M129.2,68.6c12.8,0,26.6,2.3,40.1,6.7c20.3,6.6,37.9,17.3,49.6,29.9c11.3,12.2,15.5,24.8,12.1,35.4
		c-4.6,14.2-23.1,23.1-48.3,23.1c-12.8,0-26.6-2.3-40.1-6.7c-20.3-6.6-37.9-17.3-49.6-29.9c-11.3-12.2-15.5-24.8-12.1-35.4
		C85.5,77.4,104,68.6,129.2,68.6L129.2,68.6 M129.2,65.6c-25.7,0-45.9,9-51.1,25.1c-7.9,24.1,20.6,55.1,63.6,69.1
		c14.3,4.6,28.3,6.9,41,6.9c25.7,0,45.9-9,51.1-25.1c7.9-24.1-20.6-55.1-63.6-69.1C155.9,67.8,141.9,65.6,129.2,65.6L129.2,65.6z"/>
</g>
<g>
	<path class="st2" d="M223.2,116.3c-5.9,0-10.7-4.8-10.7-10.7S217.3,95,223.2,95c5.9,0,10.7,4.8,10.7,10.7S229.1,116.3,223.2,116.3z
		"/>
	<path d="M223.2,96c5.3,0,9.7,4.3,9.7,9.7s-4.3,9.7-9.7,9.7s-9.7-4.3-9.7-9.7S217.9,96,223.2,96 M223.2,94
		c-6.4,0-11.7,5.2-11.7,11.7s5.2,11.7,11.7,11.7s11.7-5.2,11.7-11.7S229.6,94,223.2,94L223.2,94z"/>
</g>
<g>
	<circle class="st3" cx="116.1" cy="93" r="4.8"/>
	<path d="M116.1,89.2c2.1,0,3.8,1.7,3.8,3.8s-1.7,3.8-3.8,3.8s-3.8-1.7-3.8-3.8S114,89.2,116.1,89.2 M116.1,87.2
		c-3.2,0-5.8,2.6-5.8,5.8s2.6,5.8,5.8,5.8s5.8-2.6,5.8-5.8S119.3,87.2,116.1,87.2L116.1,87.2z"/>
</g>
<g>
	<circle class="st3" cx="159.1" cy="103" r="4.8"/>
	<path d="M159.1,99.2c2.1,0,3.8,1.7,3.8,3.8s-1.7,3.8-3.8,3.8s-3.8-1.7-3.8-3.8S157,99.2,159.1,99.2 M159.1,97.2
		c-3.2,0-5.8,2.6-5.8,5.8s2.6,5.8,5.8,5.8s5.8-2.6,5.8-5.8S162.3,97.2,159.1,97.2L159.1,97.2z"/>
</g>
<g>
	<path class="st3" d="M173.3,151.1c-3.3,0-6-2.7-6-6c0-3.3,2.7-6,6-6s6,2.7,6,6C179.4,148.4,176.6,151.1,173.3,151.1z"/>
	<path d="M173.3,140c2.8,0,5,2.3,5,5s-2.3,5-5,5s-5-2.3-5-5S170.6,140,173.3,140 M173.3,138c-3.9,0-7,3.1-7,7c0,3.9,3.1,7,7,7
		c3.9,0,7-3.1,7-7C180.4,141.1,177.2,138,173.3,138L173.3,138z"/>
</g>
<g>
	<path class="st4" d="M219.7,61.7c-2,0-3.7-1.6-3.7-3.7s1.6-3.7,3.7-3.7s3.7,1.6,3.7,3.7S221.8,61.7,219.7,61.7z"/>
	<path d="M219.7,55.4c1.5,0,2.7,1.2,2.7,2.7s-1.2,2.7-2.7,2.7s-2.7-1.2-2.7-2.7S218.3,55.4,219.7,55.4 M219.7,53.4
		c-2.6,0-4.7,2.1-4.7,4.7c0,2.6,2.1,4.7,4.7,4.7c2.6,0,4.7-2.1,4.7-4.7C224.4,55.5,222.3,53.4,219.7,53.4L219.7,53.4z"/>
</g>
<g>
	<path class="st4" d="M262,139.4c-2,0-3.7-1.6-3.7-3.7s1.6-3.7,3.7-3.7s3.7,1.6,3.7,3.7S264,139.4,262,139.4z"/>
	<path d="M262,133.1c1.5,0,2.7,1.2,2.7,2.7s-1.2,2.7-2.7,2.7s-2.7-1.2-2.7-2.7S260.5,133.1,262,133.1 M262,131.1
		c-2.6,0-4.7,2.1-4.7,4.7s2.1,4.7,4.7,4.7c2.6,0,4.7-2.1,4.7-4.7S264.6,131.1,262,131.1L262,131.1z"/>
</g>
<g>
	<path class="st4" d="M216.1,188.1c-6.2,0-11.2-5-11.2-11.2s5-11.2,11.2-11.2c6.2,0,11.2,5,11.2,11.2S222.3,188.1,216.1,188.1z"/>
	<path d="M216.1,167.3c5.3,0,9.7,4.3,9.7,9.7s-4.3,9.7-9.7,9.7c-5.3,0-9.7-4.3-9.7-9.7S210.8,167.3,216.1,167.3 M216.1,164.3
		c-7,0-12.7,5.7-12.7,12.7s5.7,12.7,12.7,12.7s12.7-5.7,12.7-12.7S223.1,164.3,216.1,164.3L216.1,164.3z"/>
</g>
<g>
	<path d="M202,188.4c-1.7,0-2.8-0.6-3.5-1.8c-2-3.4,2.9-7.2,4.5-8.4c0.4-0.3,1.1-0.3,1.4,0.2c0.3,0.4,0.3,1.1-0.2,1.4
		c-2.3,1.8-4.9,4.3-4,5.8c0.8,1.4,4.5,1.6,17.1-5.7c3.6-2.1,8.1-4.8,10.9-7.2c2.4-2.1,3.3-3.7,2.6-4.8c-0.6-1-2.9-0.8-6.5,0.5
		c-0.5,0.2-1.1-0.1-1.3-0.6c-0.2-0.5,0.1-1.1,0.6-1.3c1.8-0.7,7.1-2.6,8.9,0.4c1.8,3.1-1.9,6.2-3.1,7.3c-2.3,2-5.7,4.3-11.2,7.4
		C210.4,186.2,205.2,188.4,202,188.4z"/>
</g>
<g>
	<path class="st4" d="M64.9,117.4c-2.5,0-4.6-2-4.6-4.6s2-4.6,4.6-4.6c2.5,0,4.6,2,4.6,4.6S67.4,117.4,64.9,117.4z"/>
	<path d="M64.9,109.3c2,0,3.6,1.6,3.6,3.6s-1.6,3.6-3.6,3.6c-2,0-3.6-1.6-3.6-3.6S62.9,109.3,64.9,109.3 M64.9,107.3
		c-3.1,0-5.6,2.5-5.6,5.6s2.5,5.6,5.6,5.6c3.1,0,5.6-2.5,5.6-5.6S68,107.3,64.9,107.3L64.9,107.3z"/>
</g>
<g>
	<path class="st4" d="M48.7,131.7c-1.3,0-2.4-1.1-2.4-2.4c0-1.3,1.1-2.4,2.4-2.4s2.4,1.1,2.4,2.4C51.1,130.6,50,131.7,48.7,131.7z"
		/>
	<path d="M48.7,127.9c0.8,0,1.4,0.6,1.4,1.4c0,0.8-0.6,1.4-1.4,1.4s-1.4-0.6-1.4-1.4C47.3,128.6,47.9,127.9,48.7,127.9 M48.7,125.9
		c-1.9,0-3.4,1.5-3.4,3.4c0,1.9,1.5,3.4,3.4,3.4c1.9,0,3.4-1.5,3.4-3.4C52.1,127.5,50.6,125.9,48.7,125.9L48.7,125.9z"/>
</g>
<g>
	<circle cx="71.9" cy="138.9" r="1.7"/>
</g>
<g>
	<circle cx="99.8" cy="55.7" r="2.3"/>
</g>
<g>
	<circle cx="65" cy="65.6" r="2"/>
</g>
<g>
	<circle cx="240.2" cy="155.2" r="3.1"/>
</g>
<g>
	<path class="st1" d="M180.4,110.3c-0.8,0-1.5-0.7-1.5-1.5s0.7-1.5,1.5-1.5c0.8,0,1.5,0.7,1.5,1.5S181.2,110.3,180.4,110.3z"/>
	<path d="M180.4,108.3c0.3,0,0.5,0.2,0.5,0.5s-0.2,0.5-0.5,0.5c-0.3,0-0.5-0.2-0.5-0.5S180.1,108.3,180.4,108.3 M180.4,106.3
		c-1.4,0-2.5,1.1-2.5,2.5s1.1,2.5,2.5,2.5c1.4,0,2.5-1.1,2.5-2.5S181.7,106.3,180.4,106.3L180.4,106.3z"/>
</g>
<g>
	<path d="M198.5,82.4c-0.5,0-1-0.2-1.3-0.7c-2.9-4.4-6.7-7.9-6.8-8c-0.6-0.6-0.7-1.5-0.1-2.1c0.6-0.6,1.5-0.7,2.1-0.1
		c0.2,0.2,4.2,3.8,7.2,8.5c0.5,0.7,0.3,1.6-0.4,2.1C199.1,82.3,198.8,82.4,198.5,82.4z"/>
</g>
<g>
	<path d="M196,153.6c-0.3,0-0.7-0.1-0.9-0.3c-0.6-0.5-0.7-1.5-0.2-2.1c0.1-0.1,9.2-11.8,11-32.3c1.8-20.6-5.9-33.1-5.9-33.2
		c-0.4-0.7-0.2-1.6,0.5-2.1c0.7-0.4,1.6-0.2,2.1,0.5c0.3,0.5,8.2,13.5,6.4,35.1c-1.9,21.5-11.3,33.5-11.7,33.9
		C196.9,153.4,196.5,153.6,196,153.6z"/>
</g>
<g>
	<path d="M42.5,158.1c0-0.9,0.2-1.8,0.6-2.6c0.4-0.8,0.9-1.5,1.6-2c0.7-0.5,1.4-0.7,2.2-0.7c1.1,0,1.9,0.5,2.3,1.4h0.1l0.3-1.2h1.5
		l-1,4.4c-0.3,1.1-0.4,1.9-0.4,2.2c0,0.2,0.1,0.4,0.2,0.5c0.1,0.1,0.3,0.2,0.5,0.2c0.5,0,0.9-0.2,1.3-0.6c0.4-0.4,0.7-0.9,1-1.6
		c0.2-0.7,0.4-1.5,0.4-2.3c0-1-0.2-1.9-0.7-2.7s-1.1-1.4-1.9-1.8c-0.8-0.4-1.8-0.6-2.9-0.6c-1.4,0-2.6,0.3-3.7,0.9
		c-1.1,0.6-1.9,1.5-2.5,2.6c-0.6,1.1-0.9,2.4-0.9,3.9c0,1.1,0.2,2.1,0.7,2.9c0.4,0.8,1.1,1.5,1.9,1.9s1.8,0.7,3,0.7
		c1.7,0,3.5-0.5,5.2-1.4l0.5,1.1c-1.8,1-3.7,1.5-5.7,1.5c-1.4,0-2.5-0.3-3.6-0.8c-1-0.5-1.9-1.3-2.5-2.4c-0.6-1-0.9-2.2-0.9-3.6
		c0-1.7,0.4-3.1,1.1-4.5c0.7-1.3,1.8-2.4,3-3.1c1.3-0.7,2.7-1.1,4.3-1.1c1.4,0,2.6,0.3,3.7,0.8c1,0.5,1.8,1.3,2.4,2.2
		c0.5,1,0.8,2.1,0.8,3.3c0,1.1-0.2,2-0.5,2.9c-0.4,0.9-0.8,1.5-1.5,2s-1.3,0.7-2.1,0.7c-0.5,0-1-0.1-1.3-0.4
		c-0.3-0.3-0.5-0.7-0.5-1.2c0-0.2,0-0.4,0.1-0.6h-0.1c-0.3,0.7-0.7,1.2-1.3,1.6c-0.6,0.4-1.2,0.6-1.8,0.6c-0.9,0-1.6-0.3-2.2-0.9
		C42.8,159.9,42.5,159.1,42.5,158.1z M48.8,155.7c0-0.5-0.2-1-0.5-1.3c-0.4-0.3-0.8-0.5-1.4-0.5c-0.5,0-1,0.2-1.4,0.5
		c-0.4,0.4-0.8,0.9-1,1.5c-0.3,0.7-0.4,1.4-0.4,2.1c0,0.7,0.1,1.2,0.4,1.6c0.3,0.4,0.7,0.6,1.2,0.6c0.4,0,0.8-0.1,1.2-0.4
		c0.4-0.3,0.7-0.6,1-1.1c0.3-0.5,0.5-1,0.7-1.6C48.7,156.5,48.8,156,48.8,155.7z"/>
</g>
<g>
	<path d="M262.1,178.3l-1.3,0.9l-1.8-4.4l-3.2,2.2l1.8,4.3l-1.3,0.9l-1.8-4.3l-1.9,1.3l-0.8-1.2l2.2-1.5l-1.7-4l-2.4,1.7l-0.8-1.2
		l2.7-1.8l-1.8-4.4l1.3-0.9l1.8,4.4l3.2-2.2l-1.8-4.4l1.3-0.9l1.8,4.4l2-1.4l0.8,1.2l-2.3,1.6l1.7,4l2.5-1.7l0.8,1.2l-2.7,1.9
		L262.1,178.3z M255.3,175.6l3.2-2.2l-1.7-4l-3.2,2.2L255.3,175.6z"/>
</g>
<g>
	<path d="M244.5,125.2c0-0.9,0.3-1.6,0.8-2.2c0.5-0.6,1.4-1.2,2.6-1.7c-0.6-0.9-1-1.8-1-2.7c0-0.9,0.3-1.7,0.9-2.2
		c0.6-0.5,1.5-0.8,2.6-0.8c1,0,1.8,0.2,2.4,0.7s0.9,1.1,0.9,1.9c0,0.5-0.1,0.9-0.3,1.3s-0.6,0.8-1,1.1c-0.4,0.3-1.1,0.7-2.1,1.1
		c0.7,0.9,1.7,2,3,3.2c0.4-0.4,0.7-1,1-1.6c0.3-0.6,0.5-1.3,0.7-2.1l1.8,0.3c-0.2,0.9-0.5,1.7-0.9,2.5c-0.4,0.8-0.8,1.4-1.3,2
		c0.3,0.3,0.7,0.5,1,0.6c0.4,0.2,0.7,0.2,1,0.2c0.3,0,0.7,0,1-0.1v1.6c-0.3,0.1-0.8,0.2-1.3,0.2c-0.5,0-1-0.1-1.5-0.3
		c-0.5-0.2-1-0.5-1.7-1c-0.6,0.5-1.3,0.9-2.1,1.1c-0.7,0.2-1.6,0.3-2.5,0.3c-1.3,0-2.4-0.3-3.1-1
		C244.8,127.2,244.5,126.3,244.5,125.2z M246.5,125.1c0,0.6,0.2,1.1,0.7,1.5c0.4,0.4,1.1,0.5,1.8,0.5c0.6,0,1.1-0.1,1.7-0.3
		s1-0.4,1.3-0.7c-1.5-1.5-2.6-2.7-3.3-3.6c-0.8,0.3-1.3,0.7-1.6,1.1C246.7,124,246.5,124.5,246.5,125.1z M251.8,118.3
		c0-0.4-0.1-0.7-0.4-1c-0.2-0.2-0.6-0.4-1-0.4c-0.5,0-0.9,0.1-1.2,0.4s-0.4,0.7-0.4,1.2c0,0.3,0.1,0.6,0.2,1
		c0.1,0.4,0.3,0.7,0.6,1.1c0.8-0.4,1.4-0.7,1.7-1.1C251.6,119.2,251.8,118.8,251.8,118.3z"/>
</g>
<g>
	<path d="M236.6,79.5l1.6-2.6l2.7,1.6l-1.6,2.6L236.6,79.5z M239.5,75.1c0.5-0.8,1.1-1.4,1.7-1.8c0.6-0.4,1.5-0.7,2.6-0.9
		c0.9-0.2,1.5-0.3,1.9-0.5s0.7-0.3,1-0.6c0.3-0.2,0.6-0.5,0.8-0.9c0.5-0.8,0.6-1.4,0.4-2c-0.2-0.6-0.6-1.1-1.2-1.5
		c-0.6-0.4-1.3-0.5-2-0.3c-0.7,0.2-1.3,0.7-1.9,1.6l-2.4-1.6c1-1.4,2.2-2.2,3.5-2.5c1.3-0.3,2.7,0,4,0.8c1.4,0.9,2.3,1.9,2.7,3.1
		s0.1,2.5-0.7,3.8c-0.4,0.7-1,1.3-1.7,1.8s-1.6,0.8-2.8,1l-1,0.2c-1.3,0.2-2.2,0.8-2.7,1.6L239.5,75.1z"/>
</g>
<g>
	<path d="M57,55c1.6,0.3,4.9,1.2,8,3.2c5,3.2,7.3,7.9,6.8,13.8c-0.7,0.1-1.6,0.3-2.6,0.3c-4.9,0-11.3-2.7-14.2-15.3
		C55.4,56.5,56.2,55.8,57,55 M56.4,52.8c0,0-3.7,3.5-3.7,3.7C55.9,71.7,64,74.3,69.1,74.3c2.6,0,4.5-0.7,4.5-0.7
		C76.2,55.6,56.4,52.8,56.4,52.8L56.4,52.8z"/>
</g>
<g>
	<path d="M63.2,52.3c0.5,0.8,0.8,1.6,1,2.2l-1.7-0.8C62.8,53.3,63,52.8,63.2,52.3 M62,48.1c0,0,0.3,3.1-2.5,6.4l6.6,3.1
		C66.2,57.7,67.8,52.7,62,48.1L62,48.1z"/>
</g>
<g>
	<path d="M53.2,62.2l0.7,1.7c-0.7-0.2-1.4-0.6-2.2-1.1C52.1,62.6,52.6,62.4,53.2,62.2 M54.2,59.3c-2.5,1.8-4.7,2.1-5.9,2.1
		c-0.5,0-0.7,0-0.7,0c2.9,4.3,6.3,4.9,8.1,4.9c0.7,0,1.1-0.1,1.1-0.1L54.2,59.3L54.2,59.3z"/>
</g>
<path d="M53.4,51c0.7,0.8,0.7,2,0,2.6c-0.7,0.7-1.9,0.6-2.6-0.2S49.1,49,49.1,49S52.6,50.2,53.4,51z"/>
<g>
	<path class="st4" d="M79,183.6c-5,0-8.4-1.6-10.3-4.7c-3.8-6.3-0.2-12.2,2.2-15.1c0.2,5,1.8,15.5,12.7,19.4
		C82.2,183.4,80.7,183.6,79,183.6z"/>
	<path d="M70.1,166.5c0.6,4.9,2.8,12,9.7,16.1c-0.3,0-0.5,0-0.8,0c-4.6,0-7.8-1.4-9.5-4.2C66.8,173.8,68.3,169.4,70.1,166.5
		 M71.9,161.3c0,0-9.9,8.5-4.1,18.2c2.5,4.1,7.1,5.2,11.2,5.2c4.6,0,8.6-1.3,8.6-1.3C69.9,180.1,71.9,161.3,71.9,161.3L71.9,161.3z"
		/>
</g>
<g>
	<path d="M125.1,246.8v7.3h-5.5v-7.3h-15.5v-4.7l14.4-22.9h6.6v23h5.1v4.6H125.1z M119.6,225.2l-10.5,17.1h10.5V225.2z"/>
	<path d="M157.4,236.7c0,5.9-1,10.3-3,13.4c-2,3.1-5,4.6-9,4.6c-7.9,0-11.9-6-11.9-18c0-4.1,0.4-7.5,1.3-10.2
		c0.9-2.6,2.2-4.6,3.9-5.9c1.7-1.3,4-1.9,6.8-1.9c4,0,7,1.5,9,4.4C156.5,226,157.4,230.6,157.4,236.7z M151.7,236.7
		c0-3.3-0.2-5.9-0.6-7.8s-1.1-3.4-1.9-4.3s-2.1-1.4-3.6-1.4c-2.3,0-3.9,1-4.9,3.1c-1,2.1-1.4,5.5-1.4,10.4c0,4.7,0.5,8.1,1.5,10.2
		c1,2.1,2.6,3.2,4.8,3.2c2.2,0,3.8-1.1,4.8-3.2C151.2,244.7,151.7,241.3,151.7,236.7z"/>
	<path d="M181.5,246.8v7.3H176v-7.3h-15.5v-4.7l14.4-22.9h6.6v23h5.1v4.6H181.5z M176,225.2l-10.5,17.1H176V225.2z"/>
</g>
</svg>
