<?xml version="1.0" encoding="UTF-8"?>
<svg id="_图层_1" data-name="图层 1" xmlns="http://www.w3.org/2000/svg" viewBox="0 0 841.89 841.89">
  <defs>
    <style>
      .cls-1 {
        fill: #04192f;
        stroke: #040000;
      }

      .cls-1, .cls-2, .cls-3, .cls-4, .cls-5 {
        stroke-miterlimit: 10;
      }

      .cls-2 {
        fill: #7dcada;
        stroke: #070102;
      }

      .cls-3 {
        fill: #6f2c79;
        stroke: #070001;
      }

      .cls-4 {
        stroke: #0f0406;
      }

      .cls-4, .cls-5 {
        fill: #f4b719;
      }

      .cls-5 {
        stroke: #080203;
      }

      .cls-6 {
        fill: #773b6b;
      }

      .cls-6, .cls-7, .cls-8, .cls-9, .cls-10, .cls-11, .cls-12, .cls-13, .cls-14, .cls-15, .cls-16, .cls-17, .cls-18, .cls-19, .cls-20, .cls-21, .cls-22, .cls-23, .cls-24, .cls-25, .cls-26, .cls-27 {
        stroke-width: 0px;
      }

      .cls-7 {
        fill: #508db4;
      }

      .cls-8 {
        fill: #4a70ce;
      }

      .cls-9 {
        fill: #29084d;
      }

      .cls-10 {
        fill: #3f0835;
      }

      .cls-11 {
        fill: #1c003b;
      }

      .cls-12 {
        fill: #0a3754;
      }

      .cls-13 {
        fill: #091c28;
      }

      .cls-14 {
        fill: #184a6b;
      }

      .cls-15 {
        fill: #130027;
      }

      .cls-16 {
        fill: #140427;
      }

      .cls-17 {
        fill: #e2c430;
      }

      .cls-18 {
        fill: #afafaf;
      }

      .cls-19 {
        fill: #b7a311;
      }

      .cls-20 {
        fill: #996c90;
      }

      .cls-21 {
        fill: #fff;
      }

      .cls-22 {
        fill: #ffd00b;
      }

      .cls-23 {
        fill: #ec6d05;
      }

      .cls-24 {
        fill: #00314d;
      }

      .cls-25 {
        fill: #00466b;
      }

      .cls-26 {
        fill: #00121c;
      }

      .cls-27 {
        fill: #001f30;
      }
    </style>
  </defs>
  <g>
    <path class="cls-22" d="M138.3,238.77l112.56-2.48c2.13-.05,2.46,3.03.38,3.45l-72.38,14.36c-11.19,2.22-22.78-.7-31.59-7.95l-8.96-7.38Z"/>
    <path class="cls-22" d="M127.71,238.77l-112.56-2.48c-2.13-.05-2.46,3.03-.38,3.45l72.38,14.36c11.19,2.22,22.78-.7,31.59-7.95l8.96-7.38Z"/>
    <path class="cls-19" d="M251.66,236.48c-.14.07-.27.14-.44.18l-72.38,14.36c-11.19,2.22-22.78-.7-31.59-7.95l-5.31-4.37-3.66.08,8.96,7.38c8.81,7.25,20.4,10.17,31.59,7.95l72.38-14.36c1.78-.35,1.78-2.62.44-3.27Z"/>
    <path class="cls-19" d="M118.74,243.06c-8.81,7.25-20.4,10.17-31.59,7.95l-72.38-14.36c-.17-.03-.3-.11-.44-.18-1.35.64-1.34,2.91.44,3.27l72.38,14.36c11.19,2.22,22.78-.7,31.59-7.95l8.96-7.38-3.66-.08-5.31,4.37Z"/>
  </g>
  <g>
    <path class="cls-17" d="M320.21,370.01c10.88.93,21.38-5.95,28.07-18.39l2.05-3.82c36.58-68.05,108.15-66.14,142.97,3.81h0c6.21,12.48,16.2,19.88,26.84,19.88h44.67l5.37-3.59c-35.54-64.06-90.1-105.12-151.33-105.12s-110.96,37.53-146.52,96.8l10.84,7.25,37.05,3.17Z"/>
    <path class="cls-19" d="M564.81,361.47h-44.67c-10.64,0-20.63-7.4-26.84-19.88-34.82-69.96-106.39-71.87-142.97-3.81l-2.05,3.82c-6.69,12.44-17.19,19.32-28.07,18.39l-37.05-3.17-6.38-4.27c-1.5,2.33-3.01,4.64-4.45,7.05l10.84,7.25,37.05,3.17c10.88.93,21.38-5.95,28.07-18.39l2.05-3.82c36.58-68.05,108.15-66.14,142.97,3.81,6.21,12.48,16.2,19.88,26.84,19.88h44.67l5.37-3.59c-1.36-2.46-2.81-4.81-4.22-7.2l-1.15.77Z"/>
    <path class="cls-22" d="M418.85,273.29c58.86,0,111.5,38,147.06,97.84l4.27-2.86c-35.54-64.06-90.1-105.12-151.33-105.12s-110.96,37.53-146.52,96.8l4.5,3.01c35.41-55.1,85.89-89.68,142.02-89.68Z"/>
  </g>
  <path class="cls-18" d="M321.56,658.36h-45.59c-6.63,0-12.54-4.18-14.75-10.43l-29.28-82.93c-2.09-5.91-1.82-12.39.75-18.11l48.13-107.22c1.84-4.1,6.29-6.58,10.68-5.59,6.03,1.36,9,7.74,6.61,13.07l-45.14,100.57c-2.57,5.72-2.83,12.2-.75,18.11l22.33,63.26c2.21,6.25,8.12,10.43,14.75,10.43h32.51c5.84,0,10.44,5.32,9.22,11.38-.89,4.41-4.97,7.46-9.47,7.46Z"/>
  <path class="cls-16" d="M325.72,654.55h-45.59c-6.63,0-12.54-4.18-14.75-10.43l-29.28-82.93c-2.09-5.91-1.82-12.39.75-18.11l48.13-107.22c.16-.36.36-.69.56-1.02-2.02.99-3.72,2.68-4.68,4.83l-48.13,107.22c-2.57,5.72-2.83,12.2-.75,18.11l29.28,82.93c2.21,6.25,8.12,10.43,14.75,10.43h45.59c3.53,0,6.78-1.89,8.45-4.83-1.33.64-2.8,1.02-4.33,1.02Z"/>
  <path class="cls-9" d="M321.81,639.5h-32.51c-6.63,0-12.54-4.18-14.75-10.43l-22.33-63.26c-2.09-5.91-1.82-12.39.75-18.11l45.14-100.57c2.39-5.33-.58-11.71-6.61-13.07-4.32-.98-8.7,1.43-10.59,5.43,1.82-.88,3.89-1.2,5.95-.74,6.03,1.36,9,7.74,6.61,13.07l-45.14,100.57c-2.57,5.72-2.83,12.2-.75,18.11l22.33,63.26c2.21,6.25,8.12,10.43,14.75,10.43h32.51c5.84,0,10.44,5.32,9.22,11.38-.13.63-.33,1.22-.58,1.78,2.6-1.23,4.62-3.54,5.22-6.47,1.22-6.06-3.38-11.38-9.22-11.38Z"/>
  <path class="cls-18" d="M516.15,658.36h45.59c6.63,0,12.54-4.18,14.75-10.43l29.28-82.93c2.09-5.91,1.82-12.39-.75-18.11l-48.13-107.22c-1.84-4.1-6.29-6.58-10.68-5.59-6.03,1.36-9,7.74-6.61,13.07l45.14,100.57c2.57,5.72,2.83,12.2.75,18.11l-22.33,63.26c-2.21,6.25-8.12,10.43-14.75,10.43h-32.51c-5.84,0-10.44,5.32-9.22,11.38.89,4.41,4.97,7.46,9.47,7.46Z"/>
  <path class="cls-16" d="M512.01,654.55h45.59c6.63,0,12.54-4.18,14.75-10.43l29.28-82.93c2.09-5.91,1.82-12.39-.75-18.11l-48.13-107.22c-.16-.36-.36-.69-.56-1.02,2.02.99,3.72,2.68,4.68,4.83l48.12,107.22c2.57,5.72,2.83,12.2.75,18.11l-29.28,82.93c-2.21,6.25-8.12,10.43-14.75,10.43h-45.59c-3.53,0-6.78-1.89-8.45-4.83,1.33.64,2.8,1.02,4.33,1.02Z"/>
  <path class="cls-9" d="M515.92,639.5h32.51c6.63,0,12.54-4.18,14.75-10.43l22.33-63.26c2.09-5.91,1.82-12.39-.75-18.11l-45.14-100.57c-2.39-5.33.58-11.71,6.61-13.07,4.32-.98,8.7,1.43,10.59,5.43-1.82-.88-3.89-1.2-5.95-.74-6.03,1.36-9,7.74-6.61,13.07l45.14,100.57c2.57,5.72,2.83,12.2.75,18.11l-22.33,63.26c-2.21,6.25-8.12,10.43-14.75,10.43h-32.51c-5.84,0-10.44,5.32-9.22,11.38.13.63.33,1.22.58,1.78-2.6-1.23-4.62-3.54-5.22-6.47-1.22-6.06,3.38-11.38,9.22-11.38Z"/>
  <rect class="cls-12" x="408.53" y="477.65" width="30.21" height="30.21"/>
  <rect class="cls-13" x="408.71" y="477.65" width="6.97" height="30.21"/>
  <rect class="cls-7" x="431.77" y="480.51" width="6.97" height="30.21"/>
  <path class="cls-8" d="M691.7,308.86c-21.13,0-41.4,8.39-56.34,23.34h0c-22.19,22.19-53.95,31.93-84.77,26l-33.23-6.4c-6.81-6.79-13.52-13.81-20.09-21.12-17.67-21.58-44.51-35.36-74.58-35.36s-57.18,13.93-74.84,35.7l-.06-.41c-6.75,7.51-13.64,14.72-20.64,21.68l-30.71,5.91c-31.05,5.98-62.7-4.29-85.24-26.46-14.9-14.65-34.96-22.87-55.87-22.87h-47.24c-.87,0-1.15,1.17-.37,1.56l8.73,4.37c11.98,5.99,22.13,15.24,28.63,26.95,18.51,33.34,43.99,63,77.02,88.69-2.61,1.37-5.23,2.73-7.87,4.04-6.89,3.42-4.36,13.83,3.33,13.83h110.94c9.73,0,18.86,4.16,25.7,11.08,17.46,17.66,41.69,28.61,68.48,28.61s51.02-10.95,68.48-28.61c6.84-6.92,15.97-11.08,25.7-11.08h110.55c7.69,0,10.21-10.41,3.33-13.83-2.23-1.11-4.44-2.26-6.65-3.41,33.37-25.79,59.1-55.61,77.75-89.16,6.45-11.59,16.32-20.9,28.18-26.84l9.95-4.98c.61-.3.39-1.22-.29-1.22h-48Z"/>
  <g>
    <path class="cls-11" d="M116.46,314.79c8.44,4.22,15.93,10.09,21.92,17.26h16.95c20.91,0,40.98,8.22,55.87,22.87,22.54,22.17,54.19,32.44,85.24,26.46l30.71-5.91c7-6.96,13.89-14.17,20.64-21.68l.06.41c17.66-21.77,44.62-35.7,74.84-35.7s56.91,13.78,74.58,35.36c6.57,7.31,13.28,14.33,20.09,21.12l33.23,6.4c30.82,5.93,62.58-3.81,84.77-26h0c14.94-14.94,35.21-23.34,56.34-23.34h16.95c5.85-7.05,13.12-12.86,21.39-16.99l9.95-4.98c.61-.3.39-1.22-.29-1.22h-48c-21.13,0-41.4,8.39-56.34,23.34h0c-22.19,22.19-53.95,31.93-84.77,26l-33.23-6.4c-6.81-6.79-13.52-13.81-20.09-21.12-17.67-21.58-44.51-35.36-74.58-35.36s-57.18,13.93-74.84,35.7l-.06-.41c-6.75,7.51-13.64,14.72-20.64,21.68l-30.71,5.91c-31.05,5.98-62.7-4.29-85.24-26.46-14.9-14.65-34.96-22.87-55.87-22.87h-47.24c-.87,0-1.15,1.17-.37,1.56l8.73,4.37Z"/>
    <path class="cls-11" d="M215.08,447.88c-1.25-1.03-2.54-2.03-3.77-3.07.83,1.39,2.11,2.5,3.77,3.07Z"/>
  </g>
  <path class="cls-15" d="M630.58,434.48c-2.23-1.11-4.44-2.26-6.65-3.41,1.47-1.13,2.84-2.32,4.27-3.46-.31.04-.62.08-.95.08h-110.55c-9.73,0-18.86,4.16-25.7,11.08-17.46,17.66-41.69,28.61-68.48,28.61s-51.02-10.95-68.48-28.61c-6.84-6.92-15.97-11.08-25.7-11.08h-109.78c1.14.91,2.22,1.86,3.38,2.76-2.61,1.37-5.23,2.73-7.87,4.04-6.89,3.42-4.36,13.83,3.33,13.83h110.94c9.73,0,18.86,4.16,25.7,11.08,17.46,17.66,41.69,28.61,68.48,28.61s51.02-10.95,68.48-28.61c6.84-6.92,15.97-11.08,25.7-11.08h110.55c7.69,0,10.21-10.41,3.33-13.83Z"/>
  <g>
    <path class="cls-23" d="M158.21,308.88h-49.56c0-7.49,6.07-13.56,13.56-13.56h22.44c7.49,0,13.56,6.07,13.56,13.56h0Z"/>
    <path class="cls-27" d="M123.23,256.92h20.4c1.46,0,2.65,1.19,2.65,2.65v36.3c0,2.49-2.02,4.51-4.51,4.51h-16.68c-2.49,0-4.51-2.02-4.51-4.51v-36.3c0-1.46,1.19-2.65,2.65-2.65Z"/>
    <path class="cls-14" d="M143.5,256.92h-20.14v-21.73c0-5.56,4.51-10.07,10.07-10.07h0c5.56,0,10.07,4.51,10.07,10.07v21.73Z"/>
    <path class="cls-26" d="M124.56,295.87v-36.3c0-1.46,1.19-2.65,2.65-2.65h-3.98c-1.46,0-2.65,1.19-2.65,2.65v36.3c0,2.49,2.02,4.51,4.51,4.51h3.98c-2.49,0-4.51-2.02-4.51-4.51Z"/>
  </g>
  <g>
    <path class="cls-22" d="M718.25,238.77l112.56-2.48c2.13-.05,2.46,3.03.38,3.45l-72.38,14.36c-11.19,2.22-22.78-.7-31.59-7.95l-8.96-7.38Z"/>
    <path class="cls-22" d="M707.66,238.77l-112.56-2.48c-2.13-.05-2.46,3.03-.38,3.45l72.38,14.36c11.19,2.22,22.78-.7,31.59-7.95l8.96-7.38Z"/>
    <path class="cls-19" d="M831.61,236.48c-.14.07-.27.14-.44.18l-72.38,14.36c-11.19,2.22-22.78-.7-31.59-7.95l-5.31-4.37-3.66.08,8.96,7.38c8.81,7.25,20.4,10.17,31.59,7.95l72.38-14.36c1.78-.35,1.78-2.62.44-3.27Z"/>
    <path class="cls-19" d="M698.69,243.06c-8.81,7.25-20.4,10.17-31.59,7.95l-72.38-14.36c-.17-.03-.3-.11-.44-.18-1.35.64-1.34,2.91.44,3.27l72.38,14.36c11.19,2.22,22.78-.7,31.59-7.95l8.96-7.38-3.66-.08-5.31,4.37Z"/>
  </g>
  <g>
    <path class="cls-23" d="M738.16,308.88h-49.56c0-7.49,6.07-13.56,13.56-13.56h22.44c7.49,0,13.56,6.07,13.56,13.56h0Z"/>
    <path class="cls-27" d="M703.18,256.92h20.4c1.46,0,2.65,1.19,2.65,2.65v36.3c0,2.49-2.02,4.51-4.51,4.51h-16.68c-2.49,0-4.51-2.02-4.51-4.51v-36.3c0-1.46,1.19-2.65,2.65-2.65Z"/>
    <path class="cls-14" d="M723.45,256.92h-20.14v-21.73c0-5.56,4.51-10.07,10.07-10.07h0c5.56,0,10.07,4.51,10.07,10.07v21.73Z"/>
    <path class="cls-26" d="M704.51,295.87v-36.3c0-1.46,1.19-2.65,2.65-2.65h-3.98c-1.46,0-2.65,1.19-2.65,2.65v36.3c0,2.49,2.02,4.51,4.51,4.51h3.98c-2.49,0-4.51-2.02-4.51-4.51Z"/>
  </g>
  <rect class="cls-6" x="373.3" y="507.14" width="105.29" height="51.47" rx="8.48" ry="8.48"/>
  <path class="cls-10" d="M473.38,554.49h-88.33c-4.68,0-8.48-3.8-8.48-8.48v-34.51c0-1.05.21-2.03.56-2.96-2.3,1.52-3.83,4.12-3.83,7.08v34.51c0,4.68,3.8,8.48,8.48,8.48h88.33c3.64,0,6.72-2.3,7.92-5.52-1.34.88-2.93,1.4-4.65,1.4Z"/>
  <path class="cls-20" d="M470.11,507.14h-88.33c-3.33,0-6.18,1.94-7.57,4.73,1.15-.58,2.42-.93,3.79-.93h88.33c4.68,0,8.48,3.8,8.48,8.48v34.51c0,1.35-.35,2.62-.91,3.75,2.77-1.39,4.69-4.23,4.69-7.55v-34.51c0-4.68-3.8-8.48-8.48-8.48Z"/>
  <path class="cls-27" d="M411.07,509.58h0c-12.48,0-22.61,10.12-22.61,22.61h0c0,12.48,10.12,22.61,22.61,22.61h0c12.48,0,22.61-10.12,22.61-22.61h0c0-12.48-10.12-22.61-22.61-22.61Z"/>
  <path class="cls-24" d="M411.07,512.85h0c-10.68,0-19.34,8.66-19.34,19.34h0c0,10.68,8.66,19.34,19.34,19.34h0c10.68,0,19.34-8.66,19.34-19.34h0c0-10.68-8.66-19.34-19.34-19.34Z"/>
  <path class="cls-27" d="M411.07,517.31h0c-8.22,0-14.88,6.66-14.88,14.88h0c0,8.22,6.66,14.88,14.88,14.88h0c8.22,0,14.88-6.66,14.88-14.88h0c0-8.22-6.66-14.88-14.88-14.88Z"/>
  <path class="cls-25" d="M411.07,522.75h0c-5.21,0-9.43,4.22-9.43,9.43h0c0,5.21,4.22,9.43,9.43,9.43h0c5.21,0,9.43-4.22,9.43-9.43h0c0-5.21-4.22-9.43-9.43-9.43Z"/>
  <path class="cls-27" d="M411.07,526.55h0c-3.11,0-5.63,2.52-5.63,5.63h0c0,3.11,2.52,5.63,5.63,5.63h0c3.11,0,5.63-2.52,5.63-5.63h0c0-3.11-2.52-5.63-5.63-5.63Z"/>
  <path class="cls-21" d="M402.48,517.12h0c-3.11,0-5.63,2.52-5.63,5.63h0c0,3.11,2.52,5.63,5.63,5.63h0c3.11,0,5.63-2.52,5.63-5.63h0c0-3.11-2.52-5.63-5.63-5.63Z"/>
  <path class="cls-27" d="M465.7,521.94h-25.27c-1.13,0-2.05-.92-2.05-2.05h0c0-1.13.92-2.05,2.05-2.05h25.27c1.13,0,2.05.92,2.05,2.05h0c0,1.13-.92,2.05-2.05,2.05Z"/>
  <path class="cls-27" d="M456.57,534.53h-7.01c-.85,0-1.54-.69-1.54-1.54h0c0-.85.69-1.54,1.54-1.54h7.01c.85,0,1.54.69,1.54,1.54h0c0,.85-.69,1.54-1.54,1.54Z"/>
  <path class="cls-27" d="M456.57,542.38h-7.01c-.85,0-1.54-.69-1.54-1.54h0c0-.85.69-1.54,1.54-1.54h7.01c.85,0,1.54.69,1.54,1.54h0c0,.85-.69,1.54-1.54,1.54Z"/>
  <g>
    <ellipse class="cls-1" cx="421.43" cy="399.23" rx="40.47" ry="41.21"/>
    <ellipse class="cls-3" cx="421.43" cy="399.23" rx="26.98" ry="27.47"/>
    <ellipse class="cls-5" cx="411.92" cy="391.71" rx="11.81" ry="12.02"/>
    <ellipse class="cls-4" cx="436.48" cy="396.06" rx="6.74" ry="6.86"/>
    <rect class="cls-2" x="409.54" y="411.12" width="27.47" height="6.34" rx="3.17" ry="3.17"/>
  </g>
</svg>