<?xml version="1.0" encoding="utf-8"?>
<!-- Generator: Adobe Illustrator 28.2.0, SVG Export Plug-In . SVG Version: 6.00 Build 0)  -->
<svg version="1.1" id="图层_1" xmlns="http://www.w3.org/2000/svg" xmlns:xlink="http://www.w3.org/1999/xlink" x="0px" y="0px"
	 viewBox="0 0 281.5 219.9" style="enable-background:new 0 0 281.5 219.9;" xml:space="preserve">
<style type="text/css">
	.st0{fill:none;stroke:#000000;stroke-width:3;stroke-linecap:round;stroke-miterlimit:10;stroke-dasharray:5.9633,5.9633;}
	.st1{fill:#92CEFF;}
</style>
<path d="M140.5,193.7c-8.3,0-15.5-5.9-17.2-14.1c-0.2-1.1-1.2-1.9-2.4-1.9H85c-0.8,0-1.5-0.7-1.5-1.5s0.7-1.5,1.5-1.5h36
	c2.6,0,4.8,1.8,5.3,4.4c1.6,7.9,9.2,12.9,17.1,11.4c5.7-1.2,10.2-5.6,11.4-11.4c0.5-2.5,2.7-4.4,5.3-4.4h38.4c0.8,0,1.5,0.7,1.5,1.5
	s-0.7,1.5-1.5,1.5H160c-1.2,0-2.1,0.8-2.4,1.9C156,187.8,148.8,193.7,140.5,193.7z"/>
<path class="st0" d="M129.5,141.2c14.1-8.2,40.2-27.5,20.4-48.5c-2.8-2.9-9-4.6-15.2,0c-8.9,6.7-2,20.5,8.4,23s25.1,0.9,36.6-21.1
	c4.9-9.3,7.8-15,9.6-18.4"/>
<polygon points="175.8,58.1 230.6,31.8 218.4,73.6 198.8,66.6 218.9,44.6 191.2,65.8 "/>
<polygon points="198.1,71.9 204.4,75.3 198.1,84.4 "/>
<path d="M39.4,105.3c2.4,0,4.3,1.9,4.3,4.3c0,2.4-1.9,4.3-4.3,4.3c-2.4,0-4.3-1.9-4.3-4.3C35.1,107.2,37,105.3,39.4,105.3
	C39.4,105.3,39.4,105.3,39.4,105.3 M39.4,104.3c-2.9,0-5.3,2.4-5.3,5.3s2.4,5.3,5.3,5.3s5.3-2.4,5.3-5.3S42.4,104.3,39.4,104.3
	L39.4,104.3z"/>
<path d="M200,12.7c2.4,0,4.3,1.9,4.3,4.3c0,2.4-1.9,4.3-4.3,4.3s-4.3-1.9-4.3-4.3c0,0,0,0,0,0C195.7,14.6,197.6,12.7,200,12.7
	L200,12.7 M200,11.7c-2.9,0-5.3,2.4-5.3,5.3c0,2.9,2.4,5.3,5.3,5.3s5.3-2.4,5.3-5.3c0,0,0,0,0,0C205.3,14.1,202.9,11.7,200,11.7
	L200,11.7z"/>
<circle cx="57.2" cy="18.7" r="3.7"/>
<path d="M264.2,83.2c0,0,2,8.5,8.4,9.4c0,0-7.9,1.8-7.8,9.5c0,0-1.1-7.1-7.8-8.5C257.1,93.5,263.5,88.7,264.2,83.2z"/>
<path d="M36.4,70c0,0,2,8.5,8.4,9.4c0,0-7.9,1.8-7.8,9.5c0,0-1.1-7.1-7.8-8.5C29.2,80.3,35.6,75.4,36.4,70z"/>
<path d="M4.4,92.6c0,0,1.2,5.3,5.2,5.8c0,0-4.9,1.1-4.8,5.9c0,0-0.7-4.4-4.8-5.3C0,99,3.9,96,4.4,92.6z"/>
<path d="M108.9,0c0,0,1.8,7.7,7.6,8.5c0,0-7.1,1.6-7,8.6c0,0-1-6.4-7-7.7C102.5,9.4,108.2,5,108.9,0z"/>
<path d="M277.6,67.5c0,0,0.9,3.9,3.9,4.3c0,0-3.6,0.8-3.6,4.4c0,0-0.5-3.3-3.6-3.9C274.3,72.4,277.3,70.1,277.6,67.5z"/>
<path d="M185.5,126.3c-0.5-2-2.3-3.4-4.4-3.3v-0.1h-78.4c-2,0.2-3.6,1.5-4.3,3.4l-20,50.1v40.1c0,1.9,1.4,3.4,3.3,3.4
	c0,0,0.1,0,0.1,0h120.2c1.9,0,3.4-1.5,3.4-3.4c0,0,0,0,0,0v-40.2L185.5,126.3z M202.5,216.5c0,0.2-0.2,0.4-0.4,0.4H81.9
	c-0.2,0-0.4-0.2-0.4-0.4V177l19.8-49.6c0,0,0,0,0-0.1v24.1c0,0.6,0.4,1,1,1s1-0.4,1-1v-25.5h76.8v29.8c0,0.6,0.4,1,1,1s1-0.4,1-1
	v-29.4c0.2,0.2,0.4,0.5,0.5,1v0.1v0.1l19.8,49.5V216.5z"/>
<path class="st1" d="M157.7,182.1c-2.2,7.7-9.3,13.3-17.7,13.3c-8.4,0-15.5-5.6-17.7-13.3H85.9v35.4h117.2v-35.4H157.7z"/>
</svg>
