<?xml version="1.0" encoding="UTF-8"?>
<svg id="_图层_1" data-name="图层 1" xmlns="http://www.w3.org/2000/svg" viewBox="0 0 841.89 841.89">
  <defs>
    <style>
      .cls-1 {
        fill: none;
        stroke: #163e49;
        stroke-linecap: round;
        stroke-linejoin: round;
        stroke-width: 5px;
      }

      .cls-2 {
        fill: #6caee2;
      }

      .cls-2, .cls-3, .cls-4, .cls-5, .cls-6, .cls-7, .cls-8, .cls-9, .cls-10, .cls-11, .cls-12, .cls-13, .cls-14, .cls-15, .cls-16, .cls-17, .cls-18, .cls-19 {
        stroke-width: 0px;
      }

      .cls-3 {
        fill: #529acc;
      }

      .cls-4 {
        fill: #3c7fa5;
      }

      .cls-5 {
        fill: #2d687c;
      }

      .cls-6 {
        fill: #163e49;
      }

      .cls-7 {
        fill: #d16152;
      }

      .cls-8 {
        fill: #cacccc;
      }

      .cls-9 {
        fill: #6bace0;
      }

      .cls-10 {
        fill: #fea683;
      }

      .cls-11 {
        fill: #64acf7;
      }

      .cls-12 {
        fill: #fff;
      }

      .cls-13 {
        fill: #ef8560;
      }

      .cls-14 {
        fill: #e2e6e7;
      }

      .cls-15 {
        fill: #efefef;
      }

      .cls-16 {
        fill: #f6d079;
      }

      .cls-17 {
        fill: #e9f3fc;
      }

      .cls-18 {
        fill: #006fca;
      }

      .cls-19 {
        fill: #00203b;
      }
    </style>
  </defs>
  <path class="cls-17" d="M57.78,645.74h767.69s25.59-74.02-61.19-95.2c-86.78-21.18,0-103.42-115.3-138.5-76.89-23.4-156.56,78.61-245.72,45.24-89.17-33.38-143.88-5.13-162.35,42.71-18.46,47.84-62.68,60.08-111.22,64.53s-74.13,32.27-71.91,81.22Z"/>
  <polyline class="cls-1" points="120.18 328.32 74.2 328.32 74.2 544.35 314.53 544.35"/>
  <rect class="cls-6" x="115.63" y="233.46" width="306.93" height="191.37"/>
  <path class="cls-3" d="M507.46,430.62s-46.95,42.07-66.93,130.85c-19.98,88.78,10.55,76.57,10.55,76.57,0,0,53.94-174.85,56.39-176.52s0-30.9,0-30.9Z"/>
  <path class="cls-2" d="M546.44,404.17s-37.09,18.5-41.9,31.09c-4.81,12.58-68.46,160.61-59.02,209.45h198.17s-14.99-197.61-22.2-207.6c-7.22-9.99-38.86-27.01-58.84-32.94h-16.2Z"/>
  <path class="cls-10" d="M538.59,628.42s-.74,7.77-21.83,0c-21.09-7.77-26.27,5.67-35.16,3.94-8.88-1.72,7.94-23.93,53.56-27.26,45.62-3.33,3.43,23.31,3.43,23.31Z"/>
  <path class="cls-3" d="M617.41,432.8s49.59,32.61,70.13,72.58c20.54,39.97,30.53,79.38,5.55,108.8-24.98,29.42-114.75,30.53-148.96,30.53,0,0-27-20.54-17.01-97.14,0,0,87.7,17.21,83.26-34.97-4.44-52.18-26.47-91.86,7.03-79.79Z"/>
  <path class="cls-4" d="M612.05,534.8s9.99,27.75,8.33,26.64c-1.06-.71-9.82-15.59-16.01-26.27,1.87-2.31,3.38-4.94,4.44-7.95l23.22,10.44-19.98-2.87Z"/>
  <rect class="cls-6" x="466.43" y="632.37" width="68.73" height="12.34"/>
  <rect class="cls-5" x="338.02" y="632.37" width="128.41" height="12.34"/>
  <polygon class="cls-6" points="296.46 524.44 424.87 524.44 466.43 632.37 338.02 632.37 296.46 524.44"/>
  <rect class="cls-17" x="123.28" y="238.22" width="291.64" height="181.83"/>
  <rect class="cls-9" x="123.28" y="238.22" width="291.64" height="14.15"/>
  <rect class="cls-18" x="123.28" y="264.58" width="29.07" height="155.48"/>
  <rect class="cls-16" x="152.35" y="264.58" width="29.07" height="155.48"/>
  <rect class="cls-18" x="181.42" y="264.58" width="29.07" height="155.48"/>
  <rect class="cls-7" x="232.77" y="264.58" width="29.07" height="155.48" transform="translate(-89.95 88.15) rotate(-17.15)"/>
  <rect class="cls-18" x="263.18" y="264.58" width="29.07" height="155.48" transform="translate(-88.6 97.12) rotate(-17.15)"/>
  <rect class="cls-7" x="293.6" y="264.58" width="29.07" height="155.48" transform="translate(-87.24 106.09) rotate(-17.15)"/>
  <g>
    <path class="cls-8" d="M403.95,411.11c-58.81-17.06-90.82,0-90.82,0l12.7,8.94s34.12-14.26,68.69-3.04h18.86c34.57-11.22,68.69,3.04,68.69,3.04l12.7-8.94c-52.85-18.86-90.82,0-90.82,0Z"/>
    <g>
      <path class="cls-15" d="M403.95,276.88s-39.31-25.14-90.82,0v134.24s32-17.06,90.82,0h0v-134.24h0Z"/>
      <path class="cls-14" d="M403.95,276.88v134.24s37.97-18.86,90.82,0v-134.24c-51.5-25.14-90.81,0-90.82,0Z"/>
    </g>
    <rect class="cls-8" x="324.29" y="283.41" width="29.04" height="6.06"/>
    <rect class="cls-8" x="324.29" y="361.73" width="29.04" height="20.33"/>
    <rect class="cls-8" x="363.26" y="361.73" width="29.04" height="20.33"/>
    <rect class="cls-8" x="324.29" y="296.96" width="68.01" height="3.11"/>
    <rect class="cls-8" x="324.29" y="304.96" width="68.01" height="3.11"/>
    <rect class="cls-8" x="324.29" y="312.95" width="68.01" height="3.11"/>
    <rect class="cls-8" x="324.29" y="320.95" width="68.01" height="3.11"/>
    <rect class="cls-8" x="415.35" y="283.41" width="29.04" height="6.06"/>
    <rect class="cls-8" x="415.35" y="296.96" width="68.01" height="3.11"/>
    <rect class="cls-8" x="415.35" y="304.96" width="68.01" height="3.11"/>
    <rect class="cls-8" x="415.35" y="312.95" width="68.01" height="3.11"/>
    <rect class="cls-8" x="415.35" y="320.95" width="68.01" height="3.11"/>
    <rect class="cls-8" x="415.35" y="360.17" width="68.01" height="3.11"/>
    <rect class="cls-8" x="415.35" y="369.65" width="68.01" height="3.11"/>
    <rect class="cls-8" x="415.35" y="379.12" width="68.01" height="3.11"/>
    <rect class="cls-8" x="415.35" y="388.6" width="68.01" height="3.11"/>
    <rect class="cls-8" x="324.29" y="329.55" width="68.01" height="3.11"/>
    <rect class="cls-8" x="324.29" y="337.55" width="68.01" height="3.11"/>
    <rect class="cls-8" x="324.29" y="345.55" width="68.01" height="3.11"/>
    <rect class="cls-8" x="324.29" y="353.55" width="68.01" height="3.11"/>
    <rect class="cls-8" x="324.29" y="386" width="68.01" height="3.11"/>
    <rect class="cls-8" x="324.29" y="394" width="68.01" height="3.11"/>
    <rect class="cls-8" x="415.35" y="327.09" width="20.72" height="29.57"/>
    <rect class="cls-8" x="440.78" y="327.09" width="42.58" height="2.46"/>
    <rect class="cls-8" x="440.78" y="335.6" width="42.58" height="2.46"/>
    <rect class="cls-8" x="440.78" y="344.12" width="42.58" height="2.46"/>
    <rect class="cls-8" x="440.78" y="352.63" width="42.58" height="2.46"/>
  </g>
  <path class="cls-4" d="M556.36,430.62c13.72-1.27,16.68-12.44,16.33-22.95-3.54-1.39-6.94-2.58-10.05-3.51h-16.2s-4.24,2.11-10.03,5.4c-.47,8.79,1.6,22.76,19.95,21.06Z"/>
  <g>
    <path class="cls-10" d="M562.1,408.02l-.31-7.26,6.63-20.72.74-13.69-7.03-16.28s-2.96-8.51-4.07-8.51-28.86-3.7-28.86-3.7l-14.8,8.51,8.51,47s3.33,12.21,20.35,8.88l.82,6.4s-1.86,12.9,9.92,12.9,8.11-13.53,8.11-13.53Z"/>
    <path class="cls-19" d="M555.83,347.84s-54.45,15.63-57.41-7.68c-2.96-23.31,39.8-23.14,54.61-17.22,0,0,17.98,1.22,17.98,12.51,0,11.28,0,14.08,0,14.08,0,0,5.59,49.01-9.22,51.23l-1.14-24.79s7.03-1.48,6.66-7.77-8.14-3.33-8.14-3.33l-3.33-17.02Z"/>
    <path class="cls-19" d="M520.53,360.84s5.19-5.97,10.14,1.56"/>
    <path class="cls-19" d="M537.34,362.39s1.68-9.32,11.12-6.63"/>
    <ellipse class="cls-19" cx="527.78" cy="371.23" rx="1.55" ry="3.61" transform="translate(-60.69 106.53) rotate(-10.9)"/>
    <ellipse class="cls-19" cx="542.39" cy="369.67" rx="1.55" ry="3.61" transform="translate(-60.13 109.26) rotate(-10.9)"/>
    <path class="cls-13" d="M535.16,371.23s-9.68,15.86-1.03,15.43l1.03-15.43Z"/>
    <path class="cls-12" d="M531.65,391.77l14.09-1.99s-1.73,7.92-7.05,8c-5.32.08-7.05-6.01-7.05-6.01Z"/>
  </g>
  <rect class="cls-11" x="129.69" y="275.29" width="13.91" height="57.38"/>
  <rect class="cls-7" x="152.35" y="283.41" width="29.07" height="13.55"/>
  <rect class="cls-7" x="160.97" y="306.51" width="8.9" height="87.26"/>
  <rect class="cls-15" x="189.9" y="283.41" width="11.12" height="112.15"/>
  <polygon class="cls-15" points="249.7 300.82 222.53 311.46 219.05 300.07 246.2 289.47 249.7 300.82"/>
  <polygon class="cls-11" points="284.11 313.31 256.94 323.95 253.46 312.56 280.61 301.96 284.11 313.31"/>
  <polygon class="cls-16" points="296.77 323.73 282.21 280.63 293.6 277.19 308.14 320.27 296.77 323.73"/>
</svg>