<?xml version="1.0" encoding="UTF-8"?>
<svg xmlns="http://www.w3.org/2000/svg" viewBox="0 0 1920 1080">
  <defs>
    <style>
      .cls-1 {
        fill: #6ac5e2;
        opacity: .65;
      }

      .cls-1, .cls-2, .cls-3, .cls-4, .cls-5, .cls-6, .cls-7, .cls-8, .cls-9, .cls-10, .cls-11, .cls-12, .cls-13, .cls-14, .cls-15, .cls-16, .cls-17, .cls-18, .cls-19, .cls-20, .cls-21, .cls-22, .cls-23, .cls-24, .cls-25, .cls-26, .cls-27, .cls-28, .cls-29, .cls-30 {
        stroke-width: 0px;
      }

      .cls-2 {
        fill: #151a35;
      }

      .cls-2, .cls-3, .cls-4, .cls-31, .cls-32 {
        mix-blend-mode: multiply;
      }

      .cls-3 {
        fill: #101426;
      }

      .cls-4 {
        fill: #770a17;
        opacity: .22;
      }

      .cls-5 {
        opacity: .43;
      }

      .cls-5, .cls-28 {
        fill: #fff;
      }

      .cls-33 {
        isolation: isolate;
      }

      .cls-32 {
        opacity: .56;
      }

      .cls-6 {
        fill: #f8b62d;
      }

      .cls-7 {
        fill: #f95769;
      }

      .cls-8 {
        fill: #f6f3ee;
      }

      .cls-9 {
        fill: #f9b355;
      }

      .cls-10 {
        fill: #4b4882;
      }

      .cls-11 {
        fill: #5555e5;
      }

      .cls-12 {
        fill: #6d64ff;
      }

      .cls-13 {
        fill: #33a7c1;
      }

      .cls-14 {
        fill: #d0e7f4;
      }

      .cls-15 {
        fill: #dcf1ff;
      }

      .cls-16 {
        fill: #ddebf2;
      }

      .cls-17 {
        fill: #ce3e5a;
      }

      .cls-18 {
        fill: #e24b61;
      }

      .cls-19 {
        fill: #dc7c9a;
      }

      .cls-20 {
        fill: #e0465c;
      }

      .cls-21 {
        fill: #dcdce2;
      }

      .cls-22 {
        fill: #b063a4;
      }

      .cls-23 {
        fill: #9e7a92;
      }

      .cls-24 {
        fill: #8585ff;
      }

      .cls-25 {
        fill: #7397e0;
      }

      .cls-26 {
        fill: #f39800;
      }

      .cls-27 {
        fill: #ffdc6c;
      }

      .cls-29 {
        fill: #ffe499;
      }

      .cls-30 {
        fill: #e85268;
      }
    </style>
  </defs>
  <g class="cls-33">
    <g id="_图层_1" data-name="图层 1">
      <rect class="cls-2" y="-.18" width="1920" height="1080.18"/>
      <g>
        <polygon class="cls-13" points="631.61 385.83 648.21 365.53 631.61 357.11 541.54 409.11 541.54 467.23 558.14 475.66 586.06 441.53 618.21 422.96 638.28 422.03 631.61 402.58 631.61 385.83"/>
        <g>
          <polygon class="cls-28" points="558.14 417.54 648.21 365.53 648.21 411.01 654.88 430.46 634.82 431.39 558.14 475.66 558.14 417.54"/>
          <polygon class="cls-9" points="568.06 436.13 638.1 395.69 638.1 388.21 568.06 428.64 568.06 436.13"/>
          <polygon class="cls-9" points="568.06 454.67 638.1 414.23 638.1 406.75 568.06 447.18 568.06 454.67"/>
        </g>
      </g>
      <g>
        <path class="cls-3" d="M1194.05,812.68h0s.04-.03.04-.03c2.06-1.9,4.48-3.51,7.25-4.81l8.36-5.55c.4-.28.82-.56,1.24-.83l.05-.03h0c11.11-6.96,29.23-7.86,52.17-1.44l94.67-12.38c.33-.1.66-.19,1-.29,6.4-3.88,46.55-26.02,48.39-26.63,4.73-4.17,13.98-5.19,26.56-2.05.92.23,1.85.49,2.78.75,2.62-1.41,4.42-2.35,4.72-2.45,3.2-2.82,9.45-3.51,17.95-1.39,16.54,4.13,35.27,17.34,41.84,29.5,4.12,7.64,2.46,13.04-3.44,14.99-.14.12-1.02.65-2.41,1.45.15.26.31.52.45.79,6.1,11.3,3.64,19.29-5.09,22.17-.98.87-27.23,15.44-41.01,22.88l-.71,1.16c2.69,3.85,4.28,8.52,4.28,13.55v7.43c0,13.07-10.7,23.77-23.77,23.77h-.66c-2.3,0-4.53-.34-6.64-.96l-20.78,33.97c1.51,13.24-3,23.05-12.31,28.7h0s-11.19,7.04-11.19,7.04c-.85.6-1.75,1.17-2.69,1.69l-.09.05h0c-12.87,7.12-34.14,6.82-60.88-2.58-53.99-18.99-109.8-67.92-124.64-109.29-6.34-17.67-4.18-31.1,4.58-39.21Z"/>
        <polygon class="cls-20" points="1313.27 942.16 1329.69 931.84 1211.81 732.33 1191.7 745.58 1313.27 942.16"/>
        <path class="cls-30" d="M1409.76,708.71c1.11-.93,36.81-20.91,38.24-21.39,4.03-3.37,10.28-3.95,17.7-.92,14.44,5.9,27.87,23.22,29.98,38.68,1.33,9.71-2.13,16.38-8.46,18.53-1.11.93-36.81,20.91-38.24,21.39-4.03,3.37-10.28,3.95-17.7.92-14.44-5.9-27.87-23.22-29.98-38.68-1.33-9.71,2.13-16.38,8.46-18.53Z"/>
        <path class="cls-17" d="M1405.48,710.62c1.11-.93,36.81-20.91,38.24-21.39,4.03-3.37,10.28-3.95,17.7-.92,14.44,5.9,27.87,23.22,29.98,38.68,1.33,9.71-2.13,16.38-8.46,18.53-1.11.93-36.81,20.91-38.24,21.39-4.03,3.37-10.28,3.95-17.7.92-14.44-5.9-27.87-23.22-29.98-38.68-1.33-9.71,2.13-16.38,8.46-18.53Z"/>
        <rect class="cls-20" x="1387.48" y="721.57" width="54.59" height="156.9" rx="21.27" ry="21.27" transform="translate(2829.55 1600.04) rotate(180)"/>
        <path class="cls-7" d="M1357.49,722.08c1.65-1.38,54.45-30.92,56.56-31.64,5.97-4.98,15.2-5.84,26.18-1.35,21.37,8.73,41.22,34.34,44.34,57.21,1.96,14.36-3.15,24.22-12.51,27.41-1.65,1.38-54.45,30.92-56.56,31.64-5.97,4.98-15.2,5.84-26.18,1.35-21.37-8.73-41.22-34.34-44.34-57.21-1.96-14.36,3.15-24.22,12.51-27.41Z"/>
        <path class="cls-30" d="M1467.88,709.66c6.76,9.59,11.53,20.41,12.94,30.67,1.96,14.36-3.15,24.22-12.51,27.41-1.65,1.38-54.45,30.92-56.56,31.64-5.97,4.98-15.2,5.84-26.18,1.35-15.48-6.33-27.35-16.26-35.45-32.84l117.77-58.23Z"/>
        <path class="cls-15" d="M1357.42,721.76l-151.8,17.79,116.5,195.36,107.57-140.88c-7.84-42.97-39.03-82.85-72.27-72.28Z"/>
        <path class="cls-14" d="M1252.62,818.37l65.04,104.39s110.74-135.07,109.91-138.21c-4.36-16.49-12.04-31.97-21.77-43.64l-153.18,77.46Z"/>
        <ellipse class="cls-20" cx="1270.95" cy="831.96" rx="66.9" ry="115.88" transform="translate(-245.71 746.98) rotate(-30)"/>
        <ellipse class="cls-20" cx="1255.75" cy="841.57" rx="66.9" ry="115.88" transform="translate(-252.55 740.66) rotate(-30)"/>
        <ellipse class="cls-28" cx="1261.71" cy="836.45" rx="62.04" ry="107.46" transform="translate(-249.19 742.96) rotate(-30)"/>
        <path class="cls-15" d="M1308.79,794.03c-16.3-24.57-37.52-39.72-46.99-45.19-41.97-24.23-75.98-4.59-75.98,43.87,0,13.87,1.26,29.43,15.04,61.14,14.91-55.28,62.1-67.6,107.94-59.81Z"/>
        <path class="cls-14" d="M1329.69,846.4c0-21.1-16.06-46.77-35.87-57.32-9.51-5.06-18.15-5.72-24.56-2.7h0s-.28.14-.28.14c-.28.14-.56.28-.84.44l-23.57,12.31c-.94.4-1.85.86-2.7,1.41h0s0,0,0,0c-5.77,3.71-9.28,10.83-9.28,20.71,0,21.1,16.06,46.77,35.87,57.32,9.33,4.97,17.82,5.7,24.21,2.88h0s.05-.02.05-.02c.7-.31,1.38-.67,2.03-1.07l21.69-11.48c1.9-.63,3.64-1.55,5.19-2.75h.01s0,0,0,0c5.04-3.9,8.07-10.69,8.07-19.85Z"/>
        <path class="cls-12" d="M1283.7,765.14c-.26.14-39.15,22.51-39.15,22.51-.87.4-1.7.86-2.49,1.41h0s0,0,0,0c-5.32,3.71-8.56,10.83-8.56,20.71,0,21.1,14.82,46.77,33.09,57.32,8.61,4.97,16.45,5.7,22.33,2.88h0s.04-.02.04-.02c.65-.31,1.27-.68,1.87-1.07,0,0,39.87-23.56,41.3-24.76-5.57-18.67-17.57-49.68-48.44-78.97Z"/>
        <path class="cls-24" d="M1278.58,819.96c10.46,16.76,11.94,34.72,3.31,40.1-8.63,5.39-24.11-3.83-34.57-20.6-10.46-16.76-11.94-34.72-3.31-40.1,8.63-5.39,24.11,3.83,34.57,20.6Z"/>
        <path class="cls-11" d="M1332.14,844.11s-3.6-20.55-20.55-45.95c-8.35-12.52-15.11-21.38-27.88-33.02l-7.25,4.16s34.34,30.88,46.14,80.68l9.54-5.87Z"/>
        <polygon class="cls-28" points="1368.78 724.52 1276.45 735.76 1304.29 756.66 1380.19 735.76 1368.78 724.52"/>
        <polygon class="cls-5" points="1442.07 697.64 1394.91 725.27 1382.3 718.07 1430.35 690.88 1442.07 697.64"/>
      </g>
      <g>
        <path class="cls-3" d="M418.13,793.39c.13.09.26.18.4.26h0s20.3,14.28,20.3,14.28c.7.62,1.43,1.22,2.22,1.78.13.09.26.17.4.26h0s3.22,2.27,3.22,2.27l184.01,130.11c.85.7,1.78,1.37,2.82,1.99l60.84,7.75-18.03-25.56h0l-15.39-21.82h0,0l-180.22-126.72c1.22.59,2.41,1.25,3.54,2.05.13.09.25.19.38.28h0s-9.95-7.18-9.95-7.18h0c-.13-.08-.25-.18-.38-.27-1.91-1.35-3.99-2.38-6.14-3.14l-17.04-11.98h0c-.13-.08-.25-.18-.38-.27-10.93-7.68-26.63-5.88-35.07,4.04-8.44,9.91-6.43,24.18,4.5,31.86Z"/>
        <path class="cls-18" d="M421.7,767.4c.13.09.26.18.4.26h0s39.19,27.56,39.19,27.56c10.93,7.68,26.63,5.88,35.07-4.04s6.43-24.18-4.5-31.86l-39.19-27.55h0c-.13-.08-.25-.18-.38-.27-10.93-7.68-26.63-5.88-35.07,4.04-8.44,9.91-6.43,24.18,4.5,31.86Z"/>
        <path class="cls-7" d="M496.34,791.19c8.44-9.91,6.43-24.18-4.5-31.86l-39.19-27.55h0c-.13-.08-.25-.18-.38-.27-10.93-7.68-26.63-5.88-35.07,4.04l79.15,55.65Z"/>
        <polygon class="cls-19" points="472.84 745.41 662.46 878.74 633.95 891.97 438.27 754.37 472.84 745.41"/>
        <path class="cls-28" d="M633.95,891.97l56.64,36.06-28.12-49.29c-16.91-5.34-26.33-.83-28.51,13.23Z"/>
        <path class="cls-22" d="M633.95,891.97c-9,7.7-10.21,13.67,1.09,26.4l-186.84-132.12c-11.68-14.18-10.53-22.22-3.87-27.62l189.62,133.33Z"/>
        <path class="cls-16" d="M440.43,751.4c-8.62,10.17-6.76,24.65,4.17,32.33.13.09.26.18.4.26h0s7.51,5.29,7.51,5.29c-9.08-7.97-10.17-21.22-2.12-30.72,8.62-10.17,24.47-12.19,35.4-4.51.13.09.25.19.38.28h0s-9.95-7.18-9.95-7.18h0c-.13-.08-.25-.18-.38-.27-10.93-7.68-26.78-5.67-35.4,4.51Z"/>
        <path class="cls-28" d="M440.43,751.4l9.95,7.17c8.62-10.17,24.47-12.19,35.4-4.51.13.09.25.19.38.28h0s-9.95-7.18-9.95-7.18h0c-.13-.08-.25-.18-.38-.27-10.93-7.68-26.78-5.67-35.4,4.51Z"/>
        <path class="cls-16" d="M635.04,918.37l55.16,8.69-56.25-35.09c-10.24,6.05-11.09,19.05,1.09,26.4Z"/>
        <path class="cls-10" d="M693.34,928.03l-26.8-3.41s-3.41-1.15-.35-6.38c3.07-5.22-1.37-4.94,2.78-10.35,4.15-5.41,6.33-5.42,6.33-5.42l18.03,25.56Z"/>
      </g>
      <g>
        <g class="cls-31">
          <path class="cls-1" d="M1420.41,542.15c-22.52-13-22.52-34.15,0-47.15,22.52-13,59.16-13,81.67,0,22.52,13,22.52,34.15,0,47.15-22.52,13-59.15,13-81.67,0ZM1430.73,536.2c16.83,9.72,44.21,9.72,61.04,0,16.83-9.72,16.83-25.53,0-35.24-16.83-9.72-44.21-9.72-61.04,0-16.83,9.72-16.83,25.53,0,35.24Z"/>
          <path class="cls-1" d="M1431.89,587.37h0c4.57,1.64,9.66-.76,11.3-5.33l10.23-28.54c1.64-4.57-.76-9.66-5.33-11.3h0c-4.57-1.64-9.66.76-11.3,5.33l-10.23,28.54c-1.64,4.57.76,9.66,5.33,11.3Z"/>
        </g>
        <g>
          <path class="cls-28" d="M1415.72,534.08c-22.52-13-22.52-34.15,0-47.15,22.52-13,59.16-13,81.67,0,22.52,13,22.52,34.15,0,47.15-22.52,13-59.15,13-81.67,0ZM1426.03,528.12c16.83,9.72,44.21,9.72,61.04,0,16.83-9.72,16.83-25.53,0-35.24-16.83-9.72-44.21-9.72-61.04,0-16.83,9.72-16.83,25.53,0,35.24Z"/>
          <path class="cls-28" d="M1427.19,579.29h0c4.57,1.64,9.66-.76,11.3-5.33l10.23-28.54c1.64-4.57-.76-9.66-5.33-11.3h0c-4.57-1.64-9.66.76-11.3,5.33l-10.23,28.54c-1.64,4.57.76,9.66,5.33,11.3Z"/>
        </g>
      </g>
      <g>
        <path class="cls-6" d="M1107.51,246c0-44.21,31.04-97.97,69.33-120.07,17.61-10.17,33.68-11.85,45.91-6.41h0s.13.06.13.06c1.65.74,3.22,1.61,4.73,2.61l16.74,9.25-3.62,6.56c3.49,7.54,5.42,16.93,5.42,27.96,0,44.21-31.04,97.97-69.33,120.07-7.84,4.53-15.37,7.35-22.39,8.64l-7.48,7.37-16.66-9.86c-1.11-.52-2.17-1.12-3.21-1.75l-.35-.19v-.02c-11.89-7.5-19.22-22.74-19.22-44.2Z"/>
        <ellipse class="cls-26" cx="1194.61" cy="215.9" rx="98.04" ry="56.6" transform="translate(410.31 1142.49) rotate(-60)"/>
        <ellipse class="cls-28" cx="1194.61" cy="215.9" rx="78.72" ry="45.45" transform="translate(410.31 1142.49) rotate(-60)"/>
        <path class="cls-10" d="M1199.46,224.22l13.51-47c.78-2.72-1.68-5.28-4.43-4.59h0c-1.28.32-2.29,1.29-2.65,2.56l-10.9,37.93c-.56,1.95-2.58,3.08-4.53,2.53l-25.12-7.05c-1.51-.42-3.12.15-4.01,1.43l-1.29,1.84c-1.45,2.08-.42,4.97,2.02,5.66l32.87,9.22c1.95.55,3.97-.58,4.53-2.53Z"/>
      </g>
      <g>
        <path class="cls-3" d="M647.61,796.54c-.4,1.61,0,8.54.7,10.35,1.25,5.7,5.96,11.33,14.04,15.76,17.72,9.73,44.88,10.03,60.66.67,7.36-4.36,10.94-10.06,10.88-15.87.11-.54,0-7.76,0-7.76-.52-2.05-1.49-4.09-2.91-6.06-2.33-3.86-6.31-7.52-11.92-10.61-17.72-9.73-44.88-10.03-60.66-.67-6.65,3.94-10.2,8.97-10.79,14.2Z"/>
        <path class="cls-27" d="M652.9,783.43c-.4,1.61,0,8.54.7,10.35,1.25,5.7,5.96,11.33,14.04,15.76,17.72,9.73,44.88,10.03,60.66.67,7.36-4.36,10.94-10.06,10.88-15.87.11-.54,0-7.76,0-7.76-.52-2.05-1.49-4.09-2.91-6.06-2.33-3.86-6.31-7.52-11.92-10.61-17.72-9.73-44.88-10.03-60.66-.67-6.65,3.94-10.2,8.97-10.79,14.2Z"/>
        <ellipse class="cls-29" cx="696.26" cy="784.92" rx="24.34" ry="43.02" transform="translate(-131.8 1429.28) rotate(-86.31)"/>
        <ellipse class="cls-28" cx="696.26" cy="784.92" rx="17.83" ry="31.51" transform="translate(-131.8 1429.28) rotate(-86.31)"/>
      </g>
      <g>
        <path class="cls-3" d="M770.66,933.58c-.4,1.61,0,8.54.7,10.35,1.25,5.7,5.96,11.33,14.04,15.76,17.72,9.73,44.88,10.03,60.66.67,7.36-4.36,10.94-10.06,10.88-15.87.11-.54,0-7.76,0-7.76-.52-2.05-1.49-4.09-2.91-6.06-2.33-3.86-6.31-7.52-11.92-10.61-17.72-9.73-44.88-10.03-60.66-.67-6.65,3.94-10.2,8.97-10.79,14.2Z"/>
        <path class="cls-27" d="M775.95,920.47c-.4,1.61,0,8.54.7,10.35,1.25,5.7,5.96,11.33,14.04,15.76,17.72,9.73,44.88,10.03,60.66.67,7.36-4.36,10.94-10.06,10.88-15.87.11-.54,0-7.76,0-7.76-.52-2.05-1.49-4.09-2.91-6.06-2.33-3.86-6.31-7.52-11.92-10.61-17.72-9.73-44.88-10.03-60.66-.67-6.65,3.94-10.2,8.97-10.79,14.2Z"/>
        <ellipse class="cls-29" cx="819.31" cy="921.96" rx="24.34" ry="43.02" transform="translate(-153.42 1680.3) rotate(-86.31)"/>
        <ellipse class="cls-28" cx="819.31" cy="921.96" rx="17.83" ry="31.51" transform="translate(-153.42 1680.3) rotate(-86.31)"/>
      </g>
      <g>
        <path class="cls-3" d="M912.5,839.73c-.4,1.61,0,8.54.7,10.35,1.25,5.7,5.96,11.33,14.04,15.76,17.72,9.73,44.88,10.03,60.66.67,7.36-4.36,10.94-10.06,10.88-15.87.11-.54,0-7.76,0-7.76-.52-2.05-1.49-4.09-2.91-6.06-2.33-3.86-6.31-7.52-11.92-10.61-17.72-9.73-44.88-10.03-60.66-.67-6.65,3.94-10.2,8.97-10.79,14.2Z"/>
        <path class="cls-27" d="M917.8,826.62c-.4,1.61,0,8.54.7,10.35,1.25,5.7,5.96,11.33,14.04,15.76,17.72,9.73,44.88,10.03,60.66.67,7.36-4.36,10.94-10.06,10.88-15.87.11-.54,0-7.76,0-7.76-.52-2.05-1.49-4.09-2.91-6.06-2.33-3.86-6.31-7.52-11.92-10.61-17.72-9.73-44.88-10.03-60.66-.67-6.65,3.94-10.2,8.97-10.79,14.2Z"/>
        <ellipse class="cls-29" cx="961.15" cy="828.11" rx="24.34" ry="43.02" transform="translate(72.96 1734.04) rotate(-86.31)"/>
        <path class="cls-28" d="M937.65,815.21c11.56-6.86,31.45-6.64,44.43.49,12.98,7.13,14.13,18.46,2.57,25.32-11.56,6.86-31.45,6.64-44.43-.49-12.98-7.13-14.13-18.46-2.57-25.32Z"/>
      </g>
      <g>
        <polygon class="cls-13" points="442.16 556.18 456.92 537.17 442.16 531.09 330.3 595.67 330.3 652.15 322.01 685.87 336.77 691.95 375.91 641.52 442.16 603.28 442.16 556.18"/>
        <polygon class="cls-28" points="456.92 537.17 345.06 601.75 345.06 658.22 336.77 691.95 361.69 664.33 456.92 609.35 456.92 537.17"/>
        <polygon class="cls-9" points="444.6 574.49 357.61 624.71 357.61 615.41 444.6 565.19 444.6 574.49"/>
        <polygon class="cls-9" points="444.6 597.51 357.61 647.73 357.61 638.43 444.6 588.21 444.6 597.51"/>
      </g>
      <g>
        <path class="cls-3" d="M883.76,759.13l341.86-197.38c3.96-2.28,2.66-6.92-2.89-10.3l-198.82-121.15c-5.55-3.38-13.32-4.27-17.28-1.99l-341.86,197.38c-3.96,2.28-2.66,6.92,2.89,10.3l198.82,121.15c5.55,3.38,13.32,4.27,17.28,1.99Z"/>
        <path class="cls-28" d="M690.09,386.28c0-9.21,5.6-19.91,12.51-23.9l321.03-185.35c2.86-1.65,5.49-1.87,7.59-.94h.02s.06.03.06.03c.75.34,1.43.83,2.03,1.46l7.37,5.3-4.56,5.96v213.54c0,9.21-5.6,19.91-12.51,23.9l-303.56,175.26-8.88,11.59-11.54,10.03c-6.51,1.19-9.13-3.34-9.56-11.09v-225.79Z"/>
        <path class="cls-10" d="M698.81,636.13l.19-25.97h15.46v14.64l321-185.33c3.87-2.23,10.68-1.95,15.15.63l138.2,79.79v-2.22l25.56,10.26v10.59h-.18c-.32,1.03-1.12,1.98-2.43,2.74l-334.04,192.86c-3.87,2.23-10.68,1.95-15.15-.63l-160.07-92.41c-2.44-1.41-3.68-3.22-3.69-4.94h0Z"/>
        <path class="cls-28" d="M877.91,724.13l334.04-192.86c3.87-2.23,3.38-6.17-1.09-8.75l-160.07-92.41c-4.46-2.58-11.28-2.86-15.15-.63l-334.04,192.86c-3.87,2.23-3.38,6.17,1.09,8.74l160.07,92.41c4.46,2.58,11.28,2.86,15.15.63Z"/>
        <path class="cls-21" d="M1002.39,634.56l80.84-46.67c.94-.54.82-1.49-.26-2.12l-38.74-22.37c-1.08-.62-2.73-.69-3.67-.15l-80.84,46.67c-.94.54-.82,1.49.26,2.12l38.74,22.37c1.08.62,2.73.69,3.67.15Z"/>
        <path class="cls-10" d="M711.23,617.99l321.03-185.35c6.91-3.99,12.51-14.69,12.51-23.9v-215.9c0-9.21-5.6-13.45-12.51-9.46l-321.03,185.35c-6.91,3.99-12.51,14.69-12.51,23.9v215.9c0,9.21,5.6,13.45,12.51,9.46Z"/>
        <polygon class="cls-25" points="718.64 599.85 1027.02 421.81 1027.02 210.95 718.64 388.99 718.64 599.85"/>
        <g>
          <path class="cls-25" d="M1030.78,468.83c.49.28,1.47.17,2.21-.26l20.28-11.7c.73-.42.93-.99.45-1.27l-13.43-7.76c-.49-.28-1.47-.17-2.21.26l-20.28,11.7c-.73.42-.93.99-.44,1.27l13.43,7.76Z"/>
          <path class="cls-25" d="M1007.26,503.77c.49.28,1.47.17,2.21-.26l20.28-11.7c.73-.42.92-.99.43-1.27l-13.44-7.76c-.48-.28-1.46-.16-2.19.26l-20.28,11.7c-.74.43-.93,1-.46,1.27l13.44,7.76Z"/>
          <path class="cls-25" d="M1019.15,518.28c.49.28,1.47.16,2.2-.26l20.28-11.7c.72-.42.94-.99.45-1.27l-13.44-7.76c-.48-.27-1.48-.15-2.2.26l-20.28,11.7c-.73.42-.93.99-.45,1.27l13.44,7.76Z"/>
          <path class="cls-25" d="M1051.33,521.08c.48.28,1.47.16,2.2-.25l20.28-11.7c.72-.42.92-.99.44-1.27l-13.44-7.76c-.48-.28-1.48-.16-2.2.25l-20.28,11.7c-.73.42-.92.99-.44,1.27l13.44,7.76Z"/>
          <path class="cls-25" d="M1107.14,512.94c.48.28,1.47.16,2.2-.26l20.28-11.7c.73-.42.93-.99.45-1.27l-15.78-9.11c-.47-.27-1.47-.16-2.2.26l-20.28,11.7c-.73.42-.92,1-.45,1.27l15.78,9.11Z"/>
          <path class="cls-25" d="M1072.17,533.11c.48.28,1.66.06,2.62-.5l26.57-15.33c.95-.55,1.34-1.23.86-1.51l-15.78-9.11c-.47-.27-1.66-.05-2.61.49l-26.57,15.33c-.96.56-1.34,1.24-.86,1.51l15.78,9.11Z"/>
          <path class="cls-25" d="M897.62,633.99c.4.23,1.33.08,2.06-.34l20.26-11.69c.74-.43,1.01-.96.61-1.2l-5.83-3.37c-.4-.23-1.33-.08-2.07.35l-20.26,11.69c-.73.42-.99.96-.59,1.19l5.83,3.37Z"/>
          <path class="cls-25" d="M870.52,650.03c.4.23,1.33.08,2.06-.34l20.26-11.69c.74-.43,1.01-.96.61-1.2l-5.83-3.37c-.4-.23-1.33-.08-2.07.35l-20.26,11.69c-.73.42-.99.96-.59,1.19l5.83,3.37Z"/>
          <path class="cls-25" d="M841.8,666.24c.39.22,1.3.06,2.03-.36l20.27-11.7c.73-.42,1.02-.95.63-1.18l-5.62-3.25c-.38-.22-1.31-.06-2.04.36l-20.27,11.7c-.73.42-1.01.95-.62,1.17l5.62,3.25Z"/>
          <path class="cls-25" d="M859.47,643.85c.39.22,1.3.06,2.03-.36l20.27-11.7c.73-.42,1.02-.95.63-1.18l-5.62-3.25c-.38-.22-1.31-.06-2.04.36l-20.27,11.7c-.73.42-1.01.95-.62,1.17l5.62,3.25Z"/>
          <path class="cls-25" d="M932.67,613.61c.48.28,1.48.16,2.21-.26l131.97-76.16c.72-.42.94-.99.45-1.27l-15.78-9.11c-.47-.27-1.49-.16-2.21.26l-131.97,76.16c-.73.42-.93,1-.46,1.28l15.78,9.11Z"/>
          <path class="cls-25" d="M946.19,602.06s.53-.25,1.12-.58l105.03-60.61c.57-.33,1.03-.62,1-.64l-.98-.57s-.54.25-1.11.58l-105.03,60.61c-.58.34-1.04.63-1.01.65l.98.57Z"/>
          <path class="cls-25" d="M1075.79,528.08s.13,0,.21-.06l15.5-8.95c.08-.05.13-.1.1-.12l-.98-.57s-.13,0-.21.06l-15.5,8.95c-.09.05-.13.1-.1.12l.98.57Z"/>
          <path class="cls-25" d="M1115.54,503.43s.08.01.12,0l6.58-3.8s.04-.05.01-.07l-.98-.57s-.08-.01-.12,0l-6.58,3.8s-.04.05-.01.07l.98.57Z"/>
          <path class="cls-25" d="M1023.53,537.11c.48.28,1.47.16,2.21-.26l20.28-11.7c.72-.42.93-1,.45-1.27l-13.44-7.76c-.48-.28-1.49-.16-2.21.26l-20.28,11.7c-.74.42-.93,1-.45,1.28l13.44,7.76Z"/>
          <path class="cls-25" d="M995.61,553.22c.48.28,1.48.16,2.2-.25l20.28-11.7c.73-.42.93-1,.45-1.27l-13.44-7.76c-.48-.28-1.48-.16-2.21.26l-20.28,11.7c-.72.42-.92.99-.44,1.27l13.44,7.76Z"/>
          <path class="cls-25" d="M967.68,569.34c.48.28,1.47.16,2.2-.25l20.28-11.7c.72-.42.92-.99.44-1.27l-13.44-7.76c-.48-.28-1.48-.17-2.2.25l-20.28,11.7c-.72.42-.92.99-.44,1.27l13.44,7.76Z"/>
          <path class="cls-25" d="M939.76,585.45c.48.28,1.47.17,2.2-.26l20.28-11.7c.73-.42.93-1,.45-1.27l-13.44-7.76c-.48-.28-1.48-.17-2.21.26l-20.28,11.7c-.73.42-.92.99-.44,1.27l13.44,7.76Z"/>
          <path class="cls-25" d="M911.83,601.57c.48.28,1.48.16,2.21-.26l20.27-11.7c.72-.42.92-.99.44-1.27l-13.44-7.76c-.48-.28-1.48-.17-2.2.25l-20.27,11.7c-.73.42-.94,1-.45,1.28l13.44,7.76Z"/>
          <path class="cls-25" d="M883.9,617.67c.48.28,1.48.16,2.2-.26l20.28-11.7c.73-.42.93-1,.45-1.27l-13.44-7.76c-.48-.28-1.48-.16-2.21.26l-20.28,11.7c-.73.42-.93,1-.44,1.27l13.44,7.76Z"/>
          <path class="cls-25" d="M821.01,653.97c.48.28,1.47.16,2.2-.26l55.25-31.88c.73-.42.93-.99.45-1.27l-13.44-7.76c-.48-.28-1.48-.17-2.21.26l-55.25,31.88c-.73.42-.93,1-.44,1.27l13.44,7.76Z"/>
          <path class="cls-25" d="M991.36,534.3c.49.28,1.46.17,2.19-.25l20.28-11.7c.73-.42.93-.99.45-1.27l-13.44-7.76c-.48-.27-1.46-.16-2.19.26l-20.28,11.7c-.73.42-.92.99-.44,1.26l13.44,7.76Z"/>
          <path class="cls-25" d="M963.43,550.42c.49.28,1.47.16,2.2-.26l20.29-11.71c.72-.42.93-.98.44-1.26l-13.44-7.76c-.48-.27-1.47-.16-2.19.25l-20.29,11.71c-.72.42-.92.99-.45,1.27l13.44,7.76Z"/>
          <path class="cls-25" d="M935.51,566.53c.49.28,1.48.16,2.2-.26l20.28-11.7c.72-.41.94-.99.45-1.27l-13.44-7.76c-.48-.27-1.48-.15-2.2.26l-20.28,11.7c-.72.42-.93.99-.45,1.27l13.44,7.76Z"/>
          <path class="cls-25" d="M907.59,582.65c.49.28,1.47.16,2.2-.26l20.28-11.7c.73-.42.94-.99.45-1.27l-13.44-7.76c-.48-.27-1.47-.16-2.2.26l-20.28,11.7c-.73.42-.93.99-.45,1.27l13.44,7.76Z"/>
          <path class="cls-25" d="M879.65,598.75c.49.28,1.47.16,2.2-.26l20.29-11.71c.73-.42.93-.99.44-1.27l-13.44-7.76c-.48-.27-1.46-.16-2.19.26l-20.29,11.71c-.72.42-.93.99-.45,1.27l13.44,7.76Z"/>
          <path class="cls-25" d="M851.74,614.86c.49.28,1.47.16,2.19-.26l20.27-11.7c.74-.43.94-.99.46-1.27l-13.44-7.76c-.48-.27-1.47-.16-2.2.26l-20.27,11.7c-.73.42-.92.99-.45,1.26l13.44,7.76Z"/>
          <path class="cls-25" d="M823.81,630.98c.49.28,1.47.16,2.19-.26l20.29-11.71c.72-.42.92-.98.44-1.26l-13.44-7.76c-.48-.27-1.46-.16-2.18.25l-20.29,11.71c-.72.42-.92.99-.45,1.26l13.44,7.76Z"/>
          <path class="cls-25" d="M979.46,519.8c.49.28,1.48.17,2.21-.25l20.28-11.7c.72-.42.92-.99.43-1.27l-13.44-7.76c-.48-.28-1.47-.16-2.19.25l-20.28,11.7c-.73.42-.93.99-.45,1.27l13.44,7.76Z"/>
          <path class="cls-25" d="M951.54,535.91c.49.28,1.48.17,2.2-.25l20.28-11.7c.73-.42.93-.99.44-1.28l-13.44-7.76c-.48-.28-1.47-.16-2.2.26l-20.28,11.7c-.72.42-.92.99-.44,1.26l13.44,7.76Z"/>
          <path class="cls-25" d="M923.62,552.02c.49.28,1.48.17,2.21-.26l20.28-11.7c.72-.42.92-.99.43-1.27l-13.44-7.76c-.48-.28-1.47-.16-2.19.26l-20.28,11.7c-.73.42-.93,1-.46,1.27l13.44,7.76Z"/>
          <path class="cls-25" d="M895.7,568.14c.49.28,1.47.17,2.2-.25l20.28-11.7c.73-.42.93-.99.44-1.28l-13.44-7.76c-.48-.28-1.47-.16-2.2.26l-20.28,11.7c-.73.42-.92.99-.44,1.26l13.44,7.76Z"/>
          <path class="cls-25" d="M867.77,584.24c.49.28,1.48.17,2.2-.25l20.28-11.7c.73-.42.93-.99.44-1.27l-13.44-7.76c-.48-.28-1.46-.16-2.2.26l-20.28,11.7c-.72.41-.92.99-.44,1.26l13.44,7.76Z"/>
          <path class="cls-25" d="M839.84,600.36c.49.28,1.48.17,2.22-.26l20.28-11.7c.72-.41.92-.99.43-1.27l-13.44-7.76c-.48-.28-1.47-.16-2.19.26l-20.28,11.7c-.74.43-.94,1-.46,1.27l13.44,7.76Z"/>
          <path class="cls-25" d="M811.92,616.47c.49.28,1.48.17,2.2-.25l20.28-11.7c.73-.42.93-.99.44-1.27l-13.44-7.76c-.48-.28-1.46-.16-2.2.26l-20.28,11.7c-.72.42-.92.99-.45,1.27l13.44,7.76Z"/>
          <path class="cls-25" d="M1035.18,487.66c.49.28,1.48.17,2.21-.25l34.39-19.84c.73-.42.93-.99.44-1.28l-13.44-7.76c-.48-.28-1.47-.16-2.2.26l-34.39,19.84c-.73.42-.93.99-.45,1.27l13.44,7.76Z"/>
          <path class="cls-25" d="M765.49,621.9c.49.28,1.47.17,2.21-.26l34.39-19.84c.72-.41.93-.99.44-1.27l-13.43-7.76c-.49-.28-1.48-.16-2.2.25l-34.39,19.84c-.73.42-.93.99-.44,1.27l13.43,7.76Z"/>
          <path class="cls-25" d="M1047.08,502.16c.49.28,1.46.17,2.2-.26l40.99-23.66c.73-.42.94-.99.45-1.27l-13.44-7.76c-.48-.27-1.47-.16-2.2.26l-40.99,23.66c-.74.43-.93.99-.45,1.27l13.44,7.76Z"/>
          <path class="cls-25" d="M1079.24,504.97c.48.28,1.47.16,2.2-.26l27.33-15.77c.73-.42.93-.99.45-1.27l-13.44-7.76c-.48-.28-1.48-.17-2.21.26l-27.33,15.77c-.73.42-.93,1-.45,1.27l13.44,7.76Z"/>
          <path class="cls-25" d="M1002.87,484.94c.49.28,1.47.17,2.21-.26l20.27-11.7c.73-.42.93-.99.45-1.27l-13.43-7.76c-.49-.28-1.48-.16-2.21.26l-20.27,11.7c-.74.43-.94.99-.45,1.28l13.43,7.76Z"/>
          <path class="cls-25" d="M975.06,500.97c.48.28,1.48.16,2.21-.26l20.28-11.7c.73-.42.93-.99.44-1.27l-13.43-7.76c-.49-.28-1.48-.16-2.21.26l-20.28,11.7c-.73.42-.94.99-.45,1.27l13.43,7.76Z"/>
          <path class="cls-25" d="M947.15,517.08c.49.28,1.46.17,2.2-.25l20.28-11.7c.73-.42.93-.99.44-1.27l-13.43-7.76c-.49-.28-1.47-.17-2.2.25l-20.28,11.7c-.73.42-.92.99-.44,1.27l13.43,7.76Z"/>
          <path class="cls-25" d="M919.22,533.2c.49.28,1.48.16,2.21-.26l20.27-11.7c.73-.42.93-.99.45-1.27l-13.43-7.76c-.49-.28-1.47-.17-2.21.26l-20.27,11.7c-.73.42-.93.99-.45,1.27l13.43,7.76Z"/>
          <path class="cls-25" d="M891.31,549.3c.48.28,1.46.17,2.2-.25l20.28-11.7c.74-.42.93-.99.45-1.27l-13.43-7.76c-.49-.28-1.47-.17-2.21.26l-20.27,11.7c-.74.42-.92.99-.44,1.27l13.43,7.76Z"/>
          <path class="cls-25" d="M863.37,565.41c.49.28,1.48.16,2.2-.25l20.29-11.71c.72-.42.92-.99.44-1.27l-13.43-7.76c-.49-.28-1.47-.17-2.2.25l-20.29,11.71c-.72.42-.93.99-.44,1.27l13.43,7.76Z"/>
          <path class="cls-25" d="M835.44,581.53c.49.28,1.48.17,2.21-.26l20.28-11.7c.73-.42.94-1,.45-1.28l-13.43-7.76c-.49-.28-1.48-.16-2.21.26l-20.28,11.7c-.73.42-.93.99-.44,1.27l13.43,7.76Z"/>
          <path class="cls-25" d="M807.53,597.64c.49.28,1.47.17,2.19-.25l20.29-11.71c.72-.42.92-.99.43-1.27l-13.43-7.76c-.49-.28-1.47-.17-2.19.25l-20.29,11.71c-.72.42-.92.98-.43,1.27l13.43,7.76Z"/>
          <path class="cls-25" d="M791.29,611.85c.34-.19.75-.34,1.19-.39.43-.05.77,0,1,.14l13.44,7.76c.23.13.33.33.24.58-.09.25-.34.49-.67.69l-5.29,3.06,17.62,10.18c.23.13.32.34.23.58-.09.25-.34.49-.68.69l-13.66,7.88c-.35.2-.76.34-1.19.4-.43.05-.78,0-1.01-.13l-31.95-18.45c-.23-.13-.32-.33-.22-.58.09-.25.34-.49.68-.69l20.28-11.7Z"/>
          <path class="cls-25" d="M1082.88,498.42s.13,0,.21-.06l15.5-8.95c.08-.05.13-.1.1-.12l-.98-.57s-.13,0-.21.06l-15.5,8.95c-.09.05-.13.1-.1.12l.98.57Z"/>
        </g>
        <g class="cls-32">
          <polygon class="cls-23" points="973.96 330.38 973.98 330.41 898.96 373.73 898.98 373.67 888.15 379.92 889.11 307.95 987.99 250.86 987.03 322.84 973.96 330.38"/>
          <polygon class="cls-23" points="725.61 473.76 726.58 401.78 873.59 316.91 872.62 388.89 725.61 473.76"/>
          <polygon class="cls-23" points="725.66 498.46 872.67 413.59 871.91 470.43 724.9 555.31 725.66 498.46"/>
          <polygon class="cls-23" points="987.07 347.54 986.31 404.38 887.43 461.47 888.19 404.63 987.07 347.54"/>
        </g>
        <g>
          <polygon class="cls-28" points="919.85 380.73 1018.73 323.64 1019.69 251.67 920.81 308.75 919.85 380.73"/>
          <polygon class="cls-28" points="757.31 474.57 904.32 389.7 905.29 317.72 758.28 402.59 757.31 474.57"/>
          <polygon class="cls-28" points="756.6 556.11 903.61 471.24 904.37 414.4 757.36 499.27 756.6 556.11"/>
          <polygon class="cls-28" points="919.13 462.28 1018.01 405.19 1018.77 348.35 919.9 405.43 919.13 462.28"/>
          <polygon class="cls-25" points="1005.69 331.22 987.39 311.33 971.85 345.2 952.21 317.33 930.66 374.54 1005.69 331.22"/>
          <path class="cls-25" d="M984.36,291.41c-.06,4.32,2.56,6.29,5.85,4.39,3.29-1.9,6-6.94,6.06-11.26.06-4.32-2.56-6.29-5.85-4.39-3.29,1.9-6,6.94-6.06,11.26Z"/>
          <path class="cls-9" d="M814.25,405.37c-.2,14.59,8.64,21.22,19.73,14.81,11.09-6.41,20.25-23.42,20.44-38.01.2-14.59-8.64-21.22-19.73-14.81-11.09,6.41-20.25,23.42-20.44,38.01Z"/>
          <polygon class="cls-28" points="843.28 374.76 842.91 401.77 820.42 401.81 843.28 374.76"/>
          <polygon class="cls-25" points="946.56 408.64 1005.65 374.52 1005.74 367.73 946.65 401.85 946.56 408.64"/>
          <polygon class="cls-25" points="946.35 423.73 1005.45 389.61 1005.54 382.82 946.44 416.94 946.35 423.73"/>
          <polygon class="cls-25" points="769.59 510.81 891.33 440.52 891.43 433.73 769.69 504.02 769.59 510.81"/>
          <polygon class="cls-25" points="769.39 525.9 891.13 455.61 891.22 448.82 769.48 519.11 769.39 525.9"/>
          <polygon class="cls-25" points="977.28 420.15 1005.26 403.99 1005.35 397.2 977.37 413.36 977.28 420.15"/>
        </g>
      </g>
      <g>
        <path class="cls-3" d="M1258.9,436.72l-7.61-4.34h.01s.47-6.14.47-6.14h0s3.5-46.06,3.5-46.06c1.58-20.75,30.11-37.45,66.03-38.63l79.69-2.63h0l9.8-.32.83-.03h0l102.4,58.34-12.17,7.12h0l-135.99,79.57h0l-12.17,7.12-94.35-53.75h-.46s.02-.25.02-.25Z"/>
        <g>
          <path class="cls-14" d="M1250.6,420.42l3.96-52.18c1.58-20.75,30.11-37.45,66.03-38.63l90.32-2.98,2.49,93.98-162.8-.18Z"/>
          <path class="cls-25" d="M1258.17,425.02l3.96-52.18c1.58-20.75,30.11-37.45,66.03-38.63l90.32-2.98,2.49,93.98-162.8-.18Z"/>
          <polygon class="cls-4" points="1359.03 460.46 1483.34 387.72 1378.48 327.99 1254.17 400.72 1359.03 460.46"/>
          <polygon class="cls-8" points="1358.48 456.62 1476.75 387.42 1379.09 331.79 1260.83 400.98 1358.48 456.62"/>
          <polygon class="cls-20" points="1341.91 378.89 1391.55 349.85 1384.01 345.55 1334.37 374.59 1341.91 378.89"/>
          <polygon class="cls-20" points="1356.56 387.24 1398.24 362.85 1390.69 358.55 1349.01 382.94 1356.56 387.24"/>
          <path class="cls-4" d="M1410.91,326.63l-10.63.35-19.49,76.39s30.81.93,29.86.39c-.95-.54.26-77.13.26-77.13Z"/>
          <path class="cls-4" d="M1250.59,420.44l.47-6.14,132.04-12.27s2.03,17.77,1.07,17.23c-.95-.54-133.58,1.18-133.58,1.18Z"/>
          <polygon class="cls-15" points="1352.99 478.76 1513.3 384.96 1410.91 326.63 1390 407.28 1250.6 420.42 1352.99 478.76"/>
          <polygon class="cls-14" points="1410.91 326.63 1513.3 384.96 1501.13 392.08 1407.49 339.81 1410.91 326.63"/>
          <polygon class="cls-14" points="1250.58 420.43 1352.98 478.77 1365.14 471.65 1273.38 418.28 1250.58 420.43"/>
          <path class="cls-28" d="M1352.99,478.76l3.96-52.18c1.58-20.75,30.11-37.45,66.03-38.63l90.32-2.98-160.31,93.8Z"/>
        </g>
      </g>
    </g>
  </g>
</svg>