<?xml version="1.0" standalone="no"?><!DOCTYPE svg PUBLIC "-//W3C//DTD SVG 1.1//EN" "http://www.w3.org/Graphics/SVG/1.1/DTD/svg11.dtd"><svg t="1732241156634" class="icon" viewBox="0 0 1024 1024" version="1.1" xmlns="http://www.w3.org/2000/svg" p-id="5971" width="64" height="64" xmlns:xlink="http://www.w3.org/1999/xlink"><path d="M256 819.2H179.2v-102.4h76.8v102.4z m-51.2-25.6h25.6v-51.2H204.8v51.2z" fill="#FFB300" p-id="5972"></path><path d="M179.2 793.6h819.2v102.4H179.2z" fill="#212121" p-id="5973"></path><path d="M768 896m-102.4 0a102.4 102.4 0 1 0 204.8 0 102.4 102.4 0 1 0-204.8 0Z" fill="#FFB300" p-id="5974"></path><path d="M768 1024c-71.68 0-128-56.32-128-128s56.32-128 128-128 128 56.32 128 128-56.32 128-128 128z m0-204.8c-43.52 0-76.8 33.28-76.8 76.8s33.28 76.8 76.8 76.8 76.8-33.28 76.8-76.8-33.28-76.8-76.8-76.8z" fill="#FFFFFF" p-id="5975"></path><path d="M768 896m-76.8 0a76.8 76.8 0 1 0 153.6 0 76.8 76.8 0 1 0-153.6 0Z" fill="#FFB300" p-id="5976"></path><path d="M768 998.4c-56.32 0-102.4-46.08-102.4-102.4s46.08-102.4 102.4-102.4 102.4 46.08 102.4 102.4-46.08 102.4-102.4 102.4z m0-153.6c-28.16 0-51.2 23.04-51.2 51.2s23.04 51.2 51.2 51.2 51.2-23.04 51.2-51.2-23.04-51.2-51.2-51.2z" fill="#212121" p-id="5977"></path><path d="M182.4 198.656l22.272-12.6464 279.296 491.9808-22.2464 12.6208zM455.8848 368.8192l10.24-23.4752 499.84 217.9072-10.24 23.4496z" p-id="5978"></path><path d="M358.4 896m-102.4 0a102.4 102.4 0 1 0 204.8 0 102.4 102.4 0 1 0-204.8 0Z" fill="#FFB300" p-id="5979"></path><path d="M358.4 1024c-71.68 0-128-56.32-128-128s56.32-128 128-128 128 56.32 128 128-56.32 128-128 128z m0-204.8c-43.52 0-76.8 33.28-76.8 76.8s33.28 76.8 76.8 76.8 76.8-33.28 76.8-76.8-33.28-76.8-76.8-76.8z" fill="#FFFFFF" p-id="5980"></path><path d="M358.4 896m-76.8 0a76.8 76.8 0 1 0 153.6 0 76.8 76.8 0 1 0-153.6 0Z" fill="#FFB300" p-id="5981"></path><path d="M358.4 998.4c-56.32 0-102.4-46.08-102.4-102.4s46.08-102.4 102.4-102.4 102.4 46.08 102.4 102.4-46.08 102.4-102.4 102.4z m0-153.6c-28.16 0-51.2 23.04-51.2 51.2s23.04 51.2 51.2 51.2 51.2-23.04 51.2-51.2-23.04-51.2-51.2-51.2z" fill="#212121" p-id="5982"></path><path d="M486.4 512h99.84c23.04 0 43.52 15.36 48.64 38.4l5.12 12.8h268.8c43.52 0 76.8 33.28 76.8 76.8v76.8H742.4l-64 64h-256l-20.48-76.8c-2.56-10.24-2.56-17.92 0-28.16l35.84-128c5.12-20.48 25.6-35.84 48.64-35.84z" fill="#FFB300" p-id="5983"></path><path d="M742.4 691.2l25.6-51.2h25.6l-25.6 51.2h-25.6zM793.6 691.2l25.6-51.2h25.6l-25.6 51.2h-25.6z" p-id="5984"></path><path d="M427.52 665.6l28.16-110.08c2.56-10.24 12.8-20.48 25.6-20.48h97.28c12.8 0 23.04 10.24 25.6 23.04l7.68 84.48c0 12.8-7.68 23.04-17.92 28.16l-112.64 30.72h-12.8l-20.48-5.12c-15.36-2.56-23.04-15.36-20.48-30.72z" fill="#212121" p-id="5985"></path><path d="M486.4 537.6h25.6v179.2h-25.6zM768 742.4h204.8v25.6h-204.8z" fill="#FFB300" p-id="5986"></path><path d="M94.72 102.4h25.6v179.2h-25.6z" p-id="5987"></path><path d="M934.4 627.2H768L51.2 140.8l51.2-76.8 832 563.2z" fill="#FFB300" p-id="5988"></path><path d="M71.68 299.52l15.36 71.68h38.4l15.36-71.68c5.12-23.04-12.8-43.52-35.84-43.52s-38.4 20.48-33.28 43.52z" p-id="5989"></path><path d="M110.08 371.2v12.8c64 38.4-38.4 102.4-38.4 12.8 17.92 43.52 51.2 12.8 25.6-12.8v-12.8h12.8z" p-id="5990"></path></svg>