<?xml version="1.0" encoding="utf-8"?>
<svg version="1.1" id="图层_1" xmlns="http://www.w3.org/2000/svg" xmlns:xlink="http://www.w3.org/1999/xlink" x="0px" y="0px"
	 viewBox="0 0 262 256" style="enable-background:new 0 0 262 256;" xml:space="preserve">
<style type="text/css">
	.st0{fill:#409EFF;}
</style>
<path class="st0" d="M128.2,206.6c-3.8,0.6-7.4,1.7-10.9,3.3c-3.8,1.5-7.5,3.3-11.2,5.1l-4.6,2.4c-0.3,0.3-0.7,0.5-1,0.7
	c-0.9,0.5-1.8,1-2.8,1.5l-3.9,2.4c-1.3,0.8-2.6,1.6-4.2,2.5c-1.3,0.8-2.7,1.6-3.9,2.6c-1,0.7-2,1.5-2.8,2.5
	c-0.6,0.8-1.2,1.5-1.2,2.1c0,1.2,1.7,2.9,5.3,5.2c3.4,2.2,6.9,4.3,10.5,6.3c3.5,1.8,5.2,2.7,5.2,2.4c13.7,6.9,23,10.4,28.1,10.4
	c2.4,0,5.8-0.9,10.4-2.6c4.1-1.6,8.2-3.4,12.2-5.2l5.1-2.5c12.1-5.7,19-10.3,21-13.4c0.5-1.2,0-2.6-1.7-4.3c-2.3-2.2-4.9-4-7.7-5.5
	l-6.8-3.7c-0.9-0.5-2.4-1.2-4.2-2.1C143.8,209.1,133.7,205.8,128.2,206.6L128.2,206.6z"/>
<path class="st0" d="M112.9,199.1c0.5-1,0-2.4-1.6-3.9c-2.1-2-4.4-3.7-6.8-5.1c-2.2-1.4-4.6-2.7-7-3.9c-1.6-0.9-3.3-1.5-5-2.3
	c-0.1-0.2-0.3-0.3-0.5-0.3c-14.8-7.4-25.1-10.7-30.7-9.9c-6.2,1.1-15,4.7-26.4,10.9c-0.3,0.2-0.7,0.4-1.1,0.5
	c-0.5,0.1-1.5,0.7-2.8,1.4c-2.8,1.5-5.6,3.3-8.3,4.9c-1.3,0.9-2.7,1.8-4.1,2.6c-1.1,0.6-2,1.5-2.6,2.5c-0.7,0.8-1.1,1.6-1.1,2.1
	c0,1.2,1.7,3,5.3,5.3c3.3,2.2,6.8,4.3,10.4,6.1c3.4,1.7,5.2,2.5,5.4,2.5c1.6,0.8,3.5,1.8,5.9,3c2.4,1.2,6.2,2.7,11.3,4.5
	c5.1,1.8,8.8,2.8,11.2,2.8c2.4,0,5.8-0.9,10.4-2.6c4.1-1.5,8-3.3,11.9-5.1c3.3-1.6,5.1-2.5,5.3-2.6
	C104.1,206.7,111,202.2,112.9,199.1L112.9,199.1z"/>
<path class="st0" d="M258.6,160.5c0.1-1.5,0.2-3.8,0.1-6.6c-0.3-4-0.8-8-1.6-12c-0.9-5.1-2.4-8.7-4.1-10.8c-1.8-2.1-4.6-4.3-8.5-7
	c-3.3-2.2-6.7-4.3-10.2-6.3l-4.6-2.5c-0.7-0.4-1.4-0.8-2.1-1.2c-0.8-0.4-2.5-1.3-4.8-2.5c-2.1-1.2-4.3-2.2-6.6-3.1
	c-1.9-0.8-3.8-1.5-5.8-2.1c-1.8-0.5-3.2-0.6-3.8-0.2c-1.2,0.7-2.1,3-2.5,6.9c-0.5,3.8-0.8,7.6-0.8,11.5l0.3,5.3
	c0,14.3,1.3,23.6,3.8,27.6c1.2,1.8,3.7,4.2,7.5,7c3.6,2.6,7.1,5,10.9,7.2l5.1,2.7c1.2,0.6,2.8,1.5,4.9,2.7c2.1,1.2,5.1,2.7,9.3,4.5
	c4.2,1.8,7.1,2.8,8.8,2.8C257.6,184.5,259.2,176.4,258.6,160.5L258.6,160.5z"/>
<path class="st0" d="M9.4,115.3c1.7,0,4.5-0.8,8.3-2.4c3.5-1.6,7-3.3,10.4-5.1l4.3-2.5C45.5,98,53.2,92.4,55.6,88.4
	c1.2-1.8,2.1-5.1,2.8-9.6c0.6-4.1,1-8.2,1.1-12.4l0.3-5.6c0.4-14.3-0.7-22.3-3.1-23.6c-1-0.5-3.4,0-7.3,1.6c-3.7,1.4-7.4,3.1-11,4.9
	c-3.6,1.8-5.1,2.6-5,2.6c-11.3,5.7-19,10.9-23,15.5C6.3,66.3,4.4,76,4.4,91.3C4.1,107.1,5.7,115.2,9.4,115.3"/>
<path class="st0" d="M226.2,181.7c-14.8-7.4-25.1-10.7-30.7-9.9c-3.7,0.8-7.3,2-10.8,3.4c-3.9,1.5-7.6,3.3-11.3,5.2l-4.3,2.3
	c-0.4,0.3-0.8,0.4-1.2,0.7c-0.9,0.6-1.8,1.1-2.8,1.6l-4.1,2.2c-1.3,0.7-2.6,1.6-4.2,2.5c-1.3,0.9-2.7,1.8-3.9,2.7
	c-1,0.7-1.9,1.5-2.8,2.3c-0.8,0.8-1.2,1.4-1.2,2c0.1,2.5,7.2,7.3,21,14.2c1.6,0.7,3.5,1.5,6.1,2.7c2.5,1.2,6.2,2.7,11.3,4.6
	c5,1.8,8.7,2.7,11.1,2.7c2.4,0,5.8-0.8,10.4-2.5c4.1-1.5,8.2-3.3,12.1-5.3l5.1-2.5c12.2-5.7,19.3-10.3,21-13.4
	c0.6-1.1,0.1-2.4-1.8-4.2c-2.2-2-4.6-3.8-7.2-5.2c-3-1.7-5.4-3-7.2-4C229.2,183.2,227.7,182.5,226.2,181.7L226.2,181.7z"/>
<path class="st0" d="M54.5,157.4c1.1-1.8,1.9-5.1,2.5-9.6c0.6-4.1,1-8.2,1.3-12.4v-5.6c0.4-14.3-0.6-22.3-3-23.5
	c-1.1-0.5-3.4,0-7.2,1.6c-3.8,1.5-7.4,3.2-11.1,5c-3.5,1.8-5.1,2.6-5,2.6c-11.4,5.9-19.1,11.2-23,15.8c-3.9,4.4-5.9,14.2-5.9,29.4
	c-0.4,15.9,1.3,23.9,4.8,24.1c1.7,0,4.5-0.8,8.3-2.5c3.5-1.6,7-3.3,10.4-5.1l4.3-2.5C44.2,167.2,52,161.6,54.5,157.4L54.5,157.4z"/>
<path class="st0" d="M140.3,51.6c1.2,1.8,3.8,4.2,7.6,7c3.4,2.5,7.1,4.8,10.8,7l5.1,3c1.2,0.7,2.8,1.5,4.8,2.7
	c2.1,1.2,5.1,2.7,9.3,4.6c4.2,1.8,7.1,2.7,8.8,2.5c3.6,0,5.1-7.9,4.6-23.8c0-15.4-1.8-25.1-5.7-29.4c-1.7-2.1-4.5-4.3-8.3-7
	c-3.3-2.3-6.8-4.4-10.4-6.2l-4.3-2.4c-0.8-0.4-1.6-0.8-2.4-1.3c-0.8-0.5-2.5-1.3-4.8-2.5c-2.1-1.1-4.3-2.1-6.6-3
	c-1.9-0.8-3.8-1.5-5.8-2.1c-1.8-0.5-3.1-0.6-3.8-0.3c-1.2,0.5-2.1,2.7-2.5,6.8c-0.5,3.8-0.7,7.7-0.5,11.6V24
	C136.6,38.3,137.8,47.4,140.3,51.6"/>
<path class="st0" d="M187,94.4c-1.7-2.1-4.5-4.3-8.4-7c-3.3-2.3-6.8-4.5-10.2-6.5l-4.3-2.3c-0.8-0.4-1.6-0.8-2.4-1.3
	c-1.6-0.9-3.2-1.7-4.9-2.4c-2.1-1.1-4.3-2.1-6.6-3c-1.9-0.8-3.8-1.5-5.8-2.1c-1.8-0.5-3.2-0.6-3.8-0.3c-1.2,0.5-2.1,2.7-2.5,6.8
	c-0.5,3.8-0.7,7.7-0.5,11.6v5.3c0.1,14.3,1.5,23.6,3.8,27.6c1.2,1.8,3.8,4.2,7.6,7c3.4,2.5,7.1,4.8,10.8,7l5.1,2.7
	c1.2,0.8,2.8,1.8,4.9,2.9c2.1,1.1,5.1,2.6,9.3,4.6c4.2,2,7.1,2.9,8.8,2.6c1.3,0,2.5-1.2,3.2-3.4c0.8-2.3,1.2-5.1,1.5-8.5
	c0.1-3.4,0.3-6,0.3-7.7c0-1.8-0.1-3.1-0.3-4.2C192.3,107.8,190.5,98,187,94.4L187,94.4z"/>
<path class="st0" d="M206.2,88.3c1.2,1.8,3.8,4.2,7.6,7c3.6,2.5,7.1,4.9,10.8,7.3l5.1,2.7c1.2,0.6,2.8,1.6,4.9,2.7
	c2.1,1.2,5.1,2.7,9.3,4.6c4.2,1.8,7.1,2.7,8.8,2.7c3.5-0.1,5.1-8.2,4.6-24.1c0-15.2-1.8-25-5.6-29.4c-1.7-2.1-4.5-4.3-8.4-7
	c-3.3-2.2-6.7-4.3-10.2-6.2l-4.4-2.5l-2.4-1c-1.6-0.9-3.2-1.8-4.9-2.6c-2.1-1.2-4.3-2.2-6.6-3.1c-1.9-0.8-3.8-1.5-5.8-2.1
	c-1.8-0.5-3.2-0.7-3.8-0.3c-1.2,0.7-2.1,3-2.5,6.9c-0.5,3.8-0.7,7.6-0.5,11.5v5.3C202.6,75,203.9,84.2,206.2,88.3L206.2,88.3z"/>
<path class="st0" d="M74,147.7c1.7,0.1,4.5-0.7,8.3-2.4c3.5-1.6,7-3.3,10.4-5.1l4.4-2.7c13.1-7.2,20.9-12.6,23.2-16.8
	c1.2-1.8,2.1-5.1,2.8-9.6c0.6-4.1,1-8.2,1-12.4l0.3-5.6c0.4-14.3-0.7-22.3-3-23.6c-1.1-0.7-3.6-0.3-7.4,1.3
	c-3.7,1.4-7.3,3.1-10.8,5.1L98,78.7C86.6,84.5,79,89.9,75,94.5c-3.9,4.2-5.9,14.1-5.9,29.4v4c0,1.8,0.1,4.4,0.2,7.8
	c0.1,3.4,0.6,6.3,1.5,8.5C71.6,146.5,72.7,147.7,74,147.7"/>
<path class="st0" d="M82.4,164.1c0,1,1.8,2.7,5.4,5.1c3.4,2.2,6.9,4.4,10.5,6.4l5.1,2.4c13.8,6.9,23.2,10.4,28.4,10.4
	c2.2,0,5.6-0.9,10.2-2.6c4.1-1.6,8.2-3.3,12.1-5.2l5.1-2.4c12.2-5.9,19.3-10.4,21-13.7c0.4-0.4,0.4-0.8,0.1-1.4
	c-0.3-0.7-0.7-1.4-1.2-2c-0.6-0.7-1.3-1.4-2.1-2.1c-0.9-0.7-1.7-1.3-2.6-2c-0.9-0.6-2-1.3-3.2-2.1l-3.2-2c-1-0.5-2-1.1-3-1.6
	c-0.9-0.3-1.8-0.8-2.6-1.3l-1.8-0.8c-0.5-0.4-0.8-0.6-0.8-0.8c-14.3-7.4-24.6-10.7-30.7-9.9c-3.7,0.8-7.3,2-10.8,3.4
	c-3.9,1.5-7.6,3.3-11.3,5.2l-4.3,2.4c-0.4,0.2-0.8,0.4-1.2,0.7c-0.9,0.6-1.8,1-2.8,1.5c-1.5,0.8-2.8,1.6-4.1,2.3l-4.2,2.5
	c-1.4,0.8-2.7,1.6-3.9,2.6c-1,0.7-1.9,1.6-2.8,2.5C82.8,162.9,82.4,163.5,82.4,164.1L82.4,164.1z"/>
<path class="st0" d="M70.4,54.6c-0.4,15.9,1.3,23.8,4.9,23.8c1.7,0.1,4.6-0.8,8.8-2.6c3.1-1.4,6.2-3,9.2-4.6c1.6-0.9,3.3-1.8,5-2.6
	l5.1-3c3.7-2.2,7.3-4.5,10.8-7c3.9-2.7,6.4-5.1,7.4-7c2.5-4,3.9-13.3,4.1-27.6v-5.3c0.1-3.7-0.1-7.7-0.5-11.6
	c-0.4-3.9-1.2-6.3-2.4-6.8c-0.7-0.4-2-0.2-3.8,0.3c-2,0.5-3.9,1.2-5.8,2.1c-2,0.9-4.1,1.8-6.6,3c-2.4,1.1-4.1,2.1-5,2.5
	c-0.8,0.4-1.5,0.8-2.2,1.3L95,11.9c-3.6,1.9-7,4-10.4,6.3c-3.1,2-5.9,4.3-8.3,7C72.4,29.3,70.4,39.2,70.4,54.6"/>
</svg>
