<?xml version="1.0" standalone="no"?><!DOCTYPE svg PUBLIC "-//W3C//DTD SVG 1.1//EN" "http://www.w3.org/Graphics/SVG/1.1/DTD/svg11.dtd"><svg t="1732759417798" class="icon" viewBox="0 0 1024 1024" version="1.1" xmlns="http://www.w3.org/2000/svg" p-id="13901" xmlns:xlink="http://www.w3.org/1999/xlink" width="64" height="64"><path d="M415.72 569.3v52.74c0 19.19 7.46 37.37 20.31 49.51l11.24 10.62H426.4v178.55h153.46V682.17h-5.66l11.35-10.61c12.97-12.13 20.51-30.4 20.51-49.7v-57.63l-190.34 5.07z" fill="#FFD7AF" p-id="13902"></path><path d="M415.72 603.51c25.62 29.44 57.69 45.5 93.24 45.5 37.36 0 70.9-17.54 97.09-49.85v-34.93l-190.33 4.55v34.73z" fill="#F5CDA5" p-id="13903"></path><path d="M506.84 471.66s-37.1 46.99-88.74 11.45c0 0 46.27 1.55 61.06-28.21h27.67v16.76z" fill="#C06345" p-id="13904"></path><path d="M360.73 472.62s-24.62 26.23-36.58-36.26c-12.78-66.79-12.34-103.05 10.58-110.68 14.65-4.88 18.85 7.6 18.85 7.6l7.15 139.34z" fill="#FFD7AF" p-id="13905"></path><path d="M507.75 623.37c90.17 0 159.35-94.46 159.35-250.94 0-195.12-57.25-240.45-159.35-240.45-102.09 0-159.34 45.32-159.34 240.45 0.01 156.48 69.17 250.94 159.34 250.94z" fill="#FED9AE" p-id="13906"></path><path d="M657.08 472.62s24.62 26.23 36.57-36.26c12.78-66.79 12.34-103.05-10.58-110.68-14.65-4.88-18.85 7.6-18.85 7.6l-7.14 139.34z" fill="#FFD7AF" p-id="13907"></path><path d="M509.74 132.01v491.23c89.18-1.4 157.36-95.5 157.36-250.81 0-193.84-56.52-239.82-157.36-240.42z" fill="#FFE1B9" p-id="13908"></path><path d="M728.42 322.13c2.05 8.97-95.59 44.09-220.01 44.09S286.36 331.1 288.4 322.13c2.03-8.97 99.72 10.69 220.01 10.69 120.29 0 217.97-19.66 220.01-10.69z" fill="#FBB040" p-id="13909"></path><path d="M707.28 320.91c-0.91-109.1-89.55-197.28-198.86-197.28s-197.96 88.18-198.86 197.28c40.36 3.14 114.2 11.91 198.86 11.91s158.5-8.77 198.86-11.91z" fill="#F7941E" p-id="13910"></path><path d="M526.08 246.26h-34.35l-11.45-133.59h57.25z" fill="#FBB040" p-id="13911"></path><path d="M859.87 905.16h-703.6l24.39-110.26 59.43-71.56 100.87-27.94 7.45-2.06 2.28-6.18 36.75-101.22 20.04-11.68 10.66 11.34c-9.85 29.65 21.52 73.16 89.99 79.69 68.48-6.53 99.85-50.04 90-79.69l10.53-11.34 20.04 11.68 36.87 101.45 2.18 5.95 7.45 2.06 100.87 27.94 59.43 71.56 24.37 110.26z" fill="#073443" p-id="13912"></path><path d="M675.18 695.4c-7.79 25.42-41.23 100.19-165.8 100.19h-2.52c-124.57 0-158.13-74.77-165.91-100.19l7.45-2.06 2.28-6.18c2.86 14.31 26.22 96.98 156.18 96.98h2.52c128.01 0 152.74-82.32 156.17-96.75l2.18 5.95 7.45 2.06z" fill="#077C8B" p-id="13913"></path><path d="M502.4 665.29h11.45v239.87H502.4z" fill="#077C8B" p-id="13914"></path><path d="M753.79 831.48c0 19.37-15.7 35.07-35.07 35.07s-35.07-15.7-35.07-35.07 35.07-66.24 35.07-66.24 35.07 46.87 35.07 66.24z" fill="#FBB040" p-id="13915"></path></svg>