<?xml version="1.0" standalone="no"?><!DOCTYPE svg PUBLIC "-//W3C//DTD SVG 1.1//EN" "http://www.w3.org/Graphics/SVG/1.1/DTD/svg11.dtd"><svg t="1732759395762" class="icon" viewBox="0 0 1024 1024" version="1.1" xmlns="http://www.w3.org/2000/svg" p-id="13549" xmlns:xlink="http://www.w3.org/1999/xlink" width="64" height="64"><path d="M77.119857 1023.188934l36.657921-233.038822a137.789915 137.789915 0 0 1 95.191789-110.156538l177.063811-55.061133h231.999286l194.610263 56.20348a138.281124 138.281124 0 0 1 97.876305 110.956181l36.349487 231.073985z" fill="#ABB5BC" p-id="13550"></path><path d="M617.918429 625.754931l194.473182 56.180633a136.990272 136.990272 0 0 1 97.305132 110.305043l36.200981 230.13726H78.068005l36.55511-232.07925a136.967425 136.967425 0 0 1 94.609192-109.5054l176.961-55.038286h231.725122m0.22847-1.61071H385.919143L208.729674 679.239625a138.612405 138.612405 0 0 0-95.751539 110.807675L76.183133 1024h871.610888l-36.475145-232.01071a138.578135 138.578135 0 0 0-98.447479-111.607318l-194.678804-56.237751z" p-id="13551"></path><path d="M625.046676 633.248728s-73.292994 18.19759-129.713521 18.197591c-49.018117 0-113.709237-18.19759-113.709237-18.197591l42.41535-132.775011h158.614904zM668.547256 266.086925c68.449442-29.198394 96.185631 100.423739 5.220526 151.829362z" fill="#EAA063" p-id="13552"></path><path d="M676.452298 334.867648c1.073806-99.875413-38.839804-172.254529-38.839804-172.254529l-59.630522 11.891834a493.265506 493.265506 0 0 1-80.752521 9.138777 493.493976 493.493976 0 0 1-80.763945-9.138777l-59.710486-11.891834s-39.87934 72.379116-38.839804 172.254529l-1.085229 92.096029c0 67.661223 75.520571 134.557073 195.124319 119.238197 74.823739 0 165.571798-51.576975 165.571798-119.238197z" fill="#FFBF82" p-id="13553"></path><path d="M322.096207 266.086925c-68.460866-29.198394-96.185631 100.423739-5.220527 151.829362z" fill="#EAA063" p-id="13554"></path><path d="M293.114859 225.030968a199.762249 199.762249 0 1 1 399.513075 0" fill="#FFAE28" p-id="13555"></path><path d="M290.179027 201.190183h405.396163a8.841767 8.841767 0 0 1 8.841767 8.841767v49.486479H281.33726v-49.486479a8.841767 8.841767 0 0 1 8.841767-8.841767z" fill="#FFD212" p-id="13556"></path><path d="M447.628737 0.811066h91.844712a6.499955 6.499955 0 0 1 6.499956 6.499956v193.879161h-104.844623V7.311022a6.499955 6.499955 0 0 1 6.499955-6.499956z" fill="#FFD212" p-id="13557"></path><path d="M259.88398 909.571084V663.646586l70.97403-25.223025v271.147523h-70.97403z" fill="#004ED8" p-id="13558"></path><path d="M330.046943 639.531638v269.22838h-69.409014V664.206336l69.409014-24.674698m1.622133-2.284695l-72.596162 25.817046v247.306738h72.596162V637.246943z" p-id="13559"></path><path d="M678.394288 909.571084V638.423561l70.97403 25.223025v245.924498h-70.97403z" fill="#004ED8" p-id="13560"></path><path d="M679.193931 639.531638l69.36332 24.640428v244.587952h-69.36332V639.531638m-1.599286-2.284695v273.123784h72.596163V663.063989l-72.596163-25.817046z" p-id="13561"></path><path d="M234.626685 1023.246051V825.837037a13.765283 13.765283 0 0 1 13.708166-13.708166h514.170459a13.765283 13.765283 0 0 1 13.708166 13.708166v197.409014z" fill="#004ED8" p-id="13562"></path><path d="M762.50531 812.837126a13.022758 13.022758 0 0 1 12.999911 12.999911v196.655065H235.380634V825.837037a13.011334 13.011334 0 0 1 12.99991-12.999911H762.50531m0-1.507898H248.380544a14.507809 14.507809 0 0 0-14.507809 14.507809V1024h543.106114V825.837037a14.519232 14.519232 0 0 0-14.507809-14.507809z" p-id="13563"></path><path d="M299.112182 861.192682m-16.963855 0a16.963855 16.963855 0 1 0 33.92771 0 16.963855 16.963855 0 1 0-33.92771 0Z" fill="#004ED8" p-id="13564"></path><path d="M299.100759 845.028469A16.164212 16.164212 0 1 1 282.94797 861.146988a16.187059 16.187059 0 0 1 16.152789-16.164212m0-1.61071a17.774922 17.774922 0 1 0 17.774921 17.774922 17.774922 17.774922 0 0 0-17.774921-17.774922z" p-id="13565"></path><path d="M713.875591 861.192682m-16.963855 0a16.963855 16.963855 0 1 0 33.927711 0 16.963855 16.963855 0 1 0-33.927711 0Z" fill="#004ED8" p-id="13566"></path><path d="M713.875591 845.028469a16.164212 16.164212 0 1 1-16.152789 16.118519 16.175636 16.175636 0 0 1 16.152789-16.164212m0-1.61071a17.774922 17.774922 0 1 0 17.774922 17.774922 17.774922 17.774922 0 0 0-17.774922-17.774922z" p-id="13567"></path></svg>